<?xml version="1.0" encoding="utf-8" ?>
<svg xmlns="http://www.w3.org/2000/svg" xmlns:xlink="http://www.w3.org/1999/xlink" width="1024" height="1024">
	<path fill="#D400F1" transform="scale(2 2)" d="M228.986 186.284C234.281 187.722 234.78 200.263 228.986 202.858C225.002 202.402 220.861 188.23 228.986 186.284Z"/>
	<path fill="#D400F1" transform="scale(2 2)" d="M227.54 153.501C235.59 152.527 233.544 168.459 230.049 170.409C221.038 171.152 225.103 155.118 227.54 153.501Z"/>
	<path fill="#D400F1" transform="scale(2 2)" d="M147.131 186.284C149.647 186.244 150.969 187.925 152.099 190C150.525 193.762 148.714 200.9 145.501 202.858C137.649 202.846 141.875 188.171 147.131 186.284Z"/>
	<path fill="#D400F1" transform="scale(2 2)" d="M271.486 186.284C276.279 186.152 281.684 199.958 275.557 202.858C270.288 203.286 267.741 190.292 268.209 188.861C268.677 187.431 270.236 186.855 271.486 186.284Z"/>
	<path fill="#D400F1" transform="scale(2 2)" d="M186.641 186.284C194.463 186.169 188.17 201.201 184.902 202.858C176.373 202.32 181.421 187.767 186.641 186.284Z"/>
	<path fill="#D400F1" transform="scale(2 2)" d="M310.317 186.284C316.088 185.567 320.859 201.23 315.202 202.858C309.95 203.281 307.158 191.129 307.53 189.009C307.751 187.743 309.328 186.913 310.317 186.284Z"/>
	<path fill="#D400F1" transform="scale(2 2)" d="M299.337 153.501C304.685 153.703 310.402 169.12 303.911 171.045C301.394 170.992 291.325 157.402 299.337 153.501Z"/>
	<path fill="#D400F1" transform="scale(2 2)" d="M261.762 153.501C262.997 153.443 264.573 153.446 265.409 154.492C267.377 156.954 272.132 167.851 267.146 171.045C260.638 171.813 258.717 156.995 259.347 155.43C259.726 154.488 260.928 153.943 261.762 153.501Z"/>
	<path fill="#D400F1" transform="scale(2 2)" d="M195.591 153.501C203.006 154.005 197.031 169.774 192.887 171.045C184.927 170.986 190.185 155.781 195.591 153.501Z"/>
	<path fill="#D400F1" transform="scale(2 2)" d="M157.204 153.501C167.402 152.551 159.273 169.488 156.31 171.045C146.346 172.659 154.003 156.319 157.204 153.501Z"/>
	<path fill="#D400F1" transform="scale(2 2)" d="M425.238 232.04C432.931 231.968 429.729 252.344 429.73 258.503L429.728 362.918C429.727 372.843 429.922 382.8 429.722 392.72C429.642 396.742 430.414 400.563 426.087 402.148C423.281 401.277 422.185 399.743 422.104 396.665C421.865 387.518 422.112 378.295 422.112 369.141L422.108 261.037C422.108 255.093 419.475 234.092 425.238 232.04Z"/>
	<path fill="#D400F1" transform="scale(2 2)" d="M320.824 105.011L383.016 104.985C398.166 104.885 405.152 107.746 405.04 124.744L404.972 135.388C404.948 143.074 406.532 144.26 410.476 150.627L420.228 166.672C423.57 172.065 427.918 177.42 428.818 183.89C431.105 200.343 418.909 212.72 403.108 214.713C386.347 215.211 371.615 199.4 375.432 182.417C378.024 170.889 394.816 152.915 397.723 142.071C398.37 139.657 398.224 122.284 397.783 119.331C396.17 108.547 381.281 111.922 373 111.943L334.641 111.917C330.672 111.916 325.308 112.602 321.532 111.643C317.683 110.667 317.346 106.562 320.824 105.011ZM401.419 150.588L392.052 166.473C388.927 171.658 383.783 178.588 382.279 184.36C378.984 197.007 390.555 207.27 403.108 207.249C416.681 205.657 426.376 192.171 419.732 179.609C417.766 175.892 403.292 151.516 401.419 150.588Z"/>
	<path fill="#2400EE" transform="scale(2 2)" d="M107.728 297.073C106.287 297.078 85.6672 298.98 91.2189 291.733C93.1934 289.155 98.4629 290.139 101.253 290.147C118.264 290.193 114.811 290.326 114.716 308.336L117.082 307.504L117.809 307.521C118.656 306.455 118.896 304.477 120.271 304.178C121.471 304.441 123.993 306.785 124.629 306.638L125.03 306.188L125.541 306.598C125.605 307.442 124.998 307.575 124.791 308.279C123.587 312.378 126.628 312.449 120.895 313.617L120.502 313.307C120.264 313.694 120.025 314.023 119.677 314.325C104.93 317.724 92.7014 329.251 90.1329 344.368C89.3632 348.898 88.3879 390.469 89.7499 396.096C91.4195 402.995 104.725 400.305 110.528 400.307L282.337 400.325C282.71 400.547 305.18 400.249 308.154 400.383C316.84 400.772 325.335 401.027 334.036 401.021L358.029 401.124C361.923 401.13 374.157 401.572 376.936 400.824C379.992 400.002 379.175 399 380.078 402.192C381.629 407.674 371.772 406.396 369.992 408.078C369.577 412.691 369.722 426.736 370.426 431.021C370.709 438.957 364.087 443.179 356.897 443.253L338.957 443.274C329.93 443.27 319.391 444.93 316.607 433.531C315.388 428.541 316.056 413.566 316.067 407.741L159.29 407.741L159.319 422.725C159.348 446.46 152.471 443.213 132.115 443.228C122.246 443.235 108.356 446.67 105.168 433.861C104.009 429.201 104.667 413.613 104.68 407.741C89.1773 407.845 82.1785 407.319 82.2209 388.629L82.2226 376.485C82.2254 347.663 78.3728 327.539 107.728 310.858L107.728 297.073ZM111.805 407.741L111.778 422.529C111.77 427.008 110.786 432.369 113.946 436.018C117.725 437.151 131.487 436.52 136.245 436.516C140.671 436.513 146.949 437.929 150.637 435.05C153.31 432.034 152.152 426.596 152.136 422.874L152.099 407.741L111.805 407.741ZM323.251 407.741L323.228 422.806C323.222 429.083 321.818 436.115 330.445 436.118C335.396 436.12 359.233 436.875 361.844 435.05C364 431.51 363.279 427.113 363.274 423.143L363.25 407.741L323.251 407.741Z"/>
	<path fill="#D400F1" transform="scale(2 2)" d="M201.137 68.031C218.894 67.5419 241.846 67.0901 259.538 68.031C263.2 72.2094 276.832 99.7902 279.042 105.011C283.23 105.212 293.844 103.908 296.878 106.224C298.863 109.589 298.181 128.253 297.591 132.003C296.544 138.667 288.276 136.237 282.336 136.234L257.875 136.22L198.629 136.226C193.922 136.227 165.017 137.353 162.322 135.198C160.441 133.694 160.724 112.249 161.217 108.758C162.052 102.831 175.676 105.021 181.083 105.011C184.047 99.5152 197.862 70.2673 201.137 68.031ZM168.195 111.944L168.195 129.166L290.325 129.166C290.318 123.436 290.177 117.67 290.325 111.944L168.195 111.944ZM253.58 75.2936L204.765 75.2936C200.243 83.3985 193.025 96.6208 189.763 105.011C195.702 105.216 201.68 104.99 207.625 105.011L249.897 105.004C257.078 105.002 264.31 104.823 271.486 105.011C269.63 101.875 255.95 75.588 255.008 75.1602L253.58 75.2936Z"/>
	<defs>
		<linearGradient id="gradient_0" gradientUnits="userSpaceOnUse" x1="247.43805" y1="373.8479" x2="287.44342" y2="224.28346">
			<stop offset="0" stop-color="#710AF6"/>
			<stop offset="1" stop-color="#B50DF9"/>
		</linearGradient>
	</defs>
	<path fill="url(#gradient_0)" transform="scale(2 2)" d="M117.082 307.504C119.944 303.835 121.19 298.066 122.86 293.737C127.164 282.583 140.372 247.093 145.469 240.44C156.982 225.413 174.613 228.812 191.3 228.825L284.629 228.832C317.498 228.799 320.982 228.408 333.376 258.891L346.755 292.05C348.846 297.147 350.73 302.626 353.264 307.504C354.68 307.778 356.099 308.043 357.511 308.336C357.137 304.897 354.634 293.955 356.581 291.641C358.802 289 377.473 289.686 379.444 291.851C380.859 293.406 379.461 296.062 377.955 296.99C376.802 297.702 365.151 297.341 363.25 297.073C363.899 302.039 364.366 307.04 365.04 311.997C391.878 323.85 389.625 348.454 389.59 372.027C389.565 388.045 393.485 410.062 370.426 407.741L370.447 423.49C370.45 425.935 370.685 428.604 370.426 431.021C369.722 426.736 369.577 412.691 369.992 408.078C371.772 406.396 381.629 407.674 380.078 402.192C379.175 399 379.992 400.002 376.936 400.824C374.157 401.572 361.923 401.13 358.029 401.124L334.036 401.021C325.335 401.027 316.84 400.772 308.154 400.383C305.18 400.249 282.71 400.547 282.337 400.325L366.406 400.339C379.295 400.41 382.353 401.906 382.27 386.222L382.271 356.787C382.314 334.621 372.722 316.443 348.095 313.76C343.293 313.237 338.421 313.403 333.597 313.406L140.187 313.408C133.326 313.41 126.474 313.215 119.677 314.325C120.025 314.023 120.264 313.694 120.502 313.307L120.895 313.617C126.628 312.449 123.587 312.378 124.791 308.279C124.998 307.575 125.605 307.442 125.541 306.598L125.03 306.188L124.629 306.638C123.993 306.785 121.471 304.441 120.271 304.178C118.896 304.477 118.656 306.455 117.809 307.521L117.082 307.504ZM184.902 236.165L173.995 236.15C151.007 236.156 150.11 246.337 142.854 263.869L125.732 306.299L286.277 306.299L325.167 306.294C331.594 306.292 338.098 306.076 344.517 306.299C340.381 294.827 335.47 283.614 330.9 272.306L324.028 255.736C315.276 235.029 312.444 236.144 289.284 236.155L184.902 236.165Z"/>
	<path fill="#2400EE" transform="scale(2 2)" d="M195.591 368.257L274.267 368.257C278.3 371.029 277.691 375.261 272.313 375.486L203.901 375.511C200.87 375.516 197.765 375.653 194.741 375.454C188.782 375.062 188.377 369.076 195.591 368.257Z"/>
	<path fill="#2400EE" transform="scale(2 2)" d="M192.887 349.503C198.269 349.305 203.729 349.495 209.118 349.494L261.527 349.499C265.402 349.5 269.439 349.302 273.294 349.733C278.384 350.304 277.901 354.567 274.267 356.756C269.686 357.04 264.949 356.768 260.347 356.764L205.764 356.769C202.577 356.773 187.712 358.973 190.414 351.722C190.86 350.523 191.789 350.022 192.887 349.503Z"/>
	<path fill="#2400EE" transform="scale(2 2)" d="M128.668 339.346C154.666 337.382 161.623 377.947 131.95 382.382C101.886 382.257 100.236 342.362 128.668 339.346ZM128.668 346.593C109.679 348.82 111.294 374.665 130.813 375.486C150.8 373.544 147.355 344.346 128.668 346.593Z"/>
	<path fill="#2400EE" transform="scale(2 2)" d="M339.234 339.346C366.57 334.875 372.561 379.762 342.562 382.382C314.734 384.694 310.759 340.888 339.234 339.346ZM340.098 346.593C322.14 346.752 321.407 374.472 342.562 375.486C364.835 373.035 354.995 341.513 340.098 346.593Z"/>
</svg>
