<?xml version="1.0" encoding="utf-8" ?>
<svg xmlns="http://www.w3.org/2000/svg" xmlns:xlink="http://www.w3.org/1999/xlink" width="1024" height="1024">
	<path fill="#9109FD" transform="scale(2 2)" d="M388.366 107.635C409.117 107.537 406.972 104.821 407.082 123.452C407.106 127.415 407.519 131.774 407.129 135.691L407.084 136.104C397.306 147.045 399.842 117.855 399.853 114.752C392.211 114.756 384.503 114.983 376.87 114.752C379.814 113.847 382.775 114.282 385.81 114.223L385.933 113.928L385.361 113.602C385.802 111.504 387.154 109.104 389.264 108.485C388.946 108.185 387.415 108.217 386.901 108.175L386.997 107.92C387.456 107.834 387.91 107.734 388.366 107.635Z"/>
	<path fill="#9109FD" transform="scale(2 2)" d="M399.853 181.129L399.811 163.834C399.793 160.905 398.404 150.913 403.437 151.07C409.048 151.244 407.091 160.477 407.089 164.067L407.084 185.941C413.647 189.974 422.651 197.788 429.073 202.668L445.216 214.723C447.178 216.176 454.205 220.336 454.702 222.752C455.091 224.638 453.768 226.914 451.764 227.186C449.099 227.547 408.413 195.624 404.171 192.527L391.067 183.021C389.389 181.805 386.877 180.625 385.671 178.934L385.81 178.566C385.035 177.733 383.974 177.428 383.174 176.637C377.928 171.452 363.951 163.646 361.007 158.463C361.524 157.549 362.566 154.719 363.924 154.993C368.105 155.835 384.299 171.985 388.366 172.171C392.276 175.033 396.15 178.005 399.853 181.129Z"/>
	<path fill="#2400EE" transform="scale(2 2)" d="M359.772 198.914C359.04 197.2 345.975 189.686 352.652 187.232C355.042 186.354 360.507 192.262 362.675 193.306L363.049 193.083C368.828 197.174 410.213 226.673 412.732 230.962L412.732 428.758L434.884 428.743C438.556 428.742 442.562 428.394 446.185 428.929C450.777 429.609 450.764 436.183 444.497 436.005C442.336 434.318 429.579 435.436 426.263 435.446L374.239 435.943C369.481 435.948 346.589 435.278 345.834 434.966C343.866 434.152 344.261 430.424 344.945 428.919L345.363 428.767C345.949 430.456 354.607 428.778 356.496 428.75C362.505 428.663 368.109 429.427 373.718 429.37C379.264 429.314 384.659 428.462 390.246 428.819C392.869 428.987 409.788 432.219 405.854 425.333C405.822 426.517 405.855 427.615 405.5 428.758C405.23 426.934 405.452 424.866 405.466 423.014L405.5 233.57C391.787 221.631 374.354 210.514 359.772 198.914Z"/>
	<path fill="#D400F1" transform="scale(2 2)" d="M255.85 75.5194C258.774 77.0773 261.275 79.1139 263.956 81.032L316.42 118.836C324.95 125.076 333.178 131.702 341.93 137.637C341.848 131.968 341.91 126.288 341.908 120.618C341.902 103.856 342.756 107.621 359.013 107.629L388.366 107.635C387.91 107.734 387.456 107.834 386.997 107.92L386.901 108.175C387.415 108.217 388.946 108.185 389.264 108.485C387.154 109.104 385.802 111.504 385.361 113.602L385.933 113.928L385.81 114.223C382.775 114.282 379.814 113.847 376.87 114.752L348.968 114.752C348.964 124.037 348.786 133.355 348.968 142.636C361.826 152.735 375.053 162.671 388.366 172.171C384.299 171.985 368.105 155.835 363.924 154.993C362.566 154.719 361.524 157.549 361.007 158.463C363.951 163.646 377.928 171.452 383.174 176.637C383.974 177.428 385.035 177.733 385.81 178.566L385.671 178.934C382.142 177.139 376.204 171.748 372.745 169.125C364.093 162.564 355.228 156.22 346.505 149.746L255.85 83.4531C250.998 86.4238 246.328 90.1757 241.734 93.5497L180.184 139.252C171.504 145.616 162.667 151.746 154.246 158.463C153.188 159.325 151.9 160.039 150.788 160.855L74.5811 217.752C71.5829 219.982 64.5771 227.286 60.6713 226.885C58.8825 226.701 57.181 224.819 57.6079 222.976C58.3217 219.893 63.6493 217.215 65.9827 215.451L150.497 152.386C154.429 149.528 158.12 146.129 162.29 143.635C164.313 141.902 166.597 140.358 168.733 138.76L242.674 84.4876C246.807 81.4986 251.121 77.4572 255.85 75.5194Z"/>
	<path fill="#9109FD" transform="scale(2 2)" d="M300.521 225.258C307.84 225.187 306.059 237.578 302.572 238.984C295.53 239.277 296.424 227.37 300.521 225.258Z"/>
	<path fill="#9109FD" transform="scale(2 2)" d="M254.986 225.258C262.458 224.613 260.62 236.806 256.996 238.984C250.646 239.443 250.141 228.003 254.986 225.258Z"/>
	<path fill="#D400F1" transform="scale(2 2)" d="M254.986 191.993C261.837 192.137 261.159 203.301 256.996 205.983C250.728 206.306 250.037 194.599 254.986 191.993Z"/>
	<path fill="#9109FD" transform="scale(2 2)" d="M210.112 225.258C212.631 225.097 213.484 226.171 214.728 228.283C214.748 231.126 214.757 233.966 214.728 236.808C213.894 238.092 213.406 238.539 211.924 238.984C205.45 239.285 205.436 228.25 210.112 225.258Z"/>
	<path fill="#D400F1" transform="scale(2 2)" d="M222.582 191.993C228.482 191.37 229.135 203.674 224.263 205.983C218.274 206.469 217.328 194.228 222.582 191.993Z"/>
	<path fill="#D400F1" transform="scale(2 2)" d="M287.22 191.993C294.353 191.35 294.238 203.42 290.423 205.983C282.444 206.479 283.846 195.022 287.22 191.993Z"/>
	<path fill="#D400F1" transform="scale(2 2)" d="M188.36 163.977C190.776 161.191 253.576 114.7 256.17 113.775C261.041 115.659 267.931 121.995 272.278 125.227L351.896 184.561C353.874 186.05 362.165 191.65 363.049 193.083L362.675 193.306C360.507 192.262 355.042 186.354 352.652 187.232C345.975 189.686 359.04 197.2 359.772 198.914C353.608 194.819 347.803 189.959 341.828 185.573L284.661 143.185C275.129 136.112 265.783 128.493 255.85 122.012C250.912 125.449 246.144 129.231 241.286 132.793L195.504 166.855C186.35 173.728 177.318 180.761 167.968 187.368C169.292 184.513 173.445 182.736 175.907 180.906L195.14 166.423C197.325 164.794 209.954 155.808 199.396 156.124C196.872 158.057 191.137 163.054 188.36 163.977Z"/>
	<defs>
		<linearGradient id="gradient_0" gradientUnits="userSpaceOnUse" x1="193.78554" y1="156.63762" x2="224.97" y2="448.34869">
			<stop offset="0" stop-color="#CA00FD"/>
			<stop offset="1" stop-color="#4114FF"/>
		</linearGradient>
	</defs>
	<path fill="url(#gradient_0)" transform="scale(2 2)" d="M199.396 156.124C209.954 155.808 197.325 164.794 195.14 166.423L175.907 180.906C173.445 182.736 169.292 184.513 167.968 187.368C149.847 201.679 130.799 214.857 112.531 228.996C110.586 230.502 108.423 231.925 106.604 233.57C106.263 245.918 106.605 258.368 106.605 270.728L106.597 419.738C106.597 422.731 106.456 425.772 106.604 428.758L165.56 428.758C163.463 422.412 164.206 415.499 164.214 408.894C146.666 407.961 150.736 389.617 150.731 377.302C150.729 372.239 149.604 350.638 151.424 347.112C153.095 343.876 164.171 332.091 167.968 329.268C166.564 327.877 165.184 326.449 163.734 325.106C153.944 324.784 140.759 328.549 141.717 312.985C142.406 301.775 155.698 302.8 163.78 303.598C171.68 304.379 169.759 312.433 170.052 318.063C175.128 307.346 179.123 287.727 184.498 279.312C193.025 265.962 208.002 269.248 221.563 269.247L295.028 269.255C319.599 269.251 325.741 268.734 333.625 292.421L338.699 307.624C340.15 311.946 341.499 316.34 343.555 320.42C343.478 308.436 340.124 303.429 351.496 303.501C357.507 303.539 365.018 302.24 368.946 308.061C372.305 313.04 370.63 319.914 365.503 322.954C361.217 325.495 353.874 324.301 348.968 324.351C347.531 325.305 346.111 326.36 344.867 327.558C364.568 351.534 361.018 345.942 361.026 376.576C361.03 391.589 364.374 402.334 347.217 408.894C347.291 415.535 347.752 422.336 345.791 428.758C364.309 430.072 386.485 428.458 405.5 428.758C405.855 427.615 405.822 426.517 405.854 425.333C409.788 432.219 392.869 428.987 390.246 428.819C384.659 428.462 379.264 429.314 373.718 429.37C368.109 429.427 362.505 428.663 356.496 428.75C354.607 428.778 345.949 430.456 345.363 428.767L344.945 428.919C344.261 430.424 343.866 434.152 345.834 434.966C346.589 435.278 369.481 435.948 374.239 435.943L426.263 435.446C429.579 435.436 442.336 434.318 444.497 436.005L81.8952 436.007C77.675 436.007 63.6029 438.098 63.2295 432.501C62.8589 426.948 74.5466 428.735 77.6777 428.737L99.487 428.758L99.4797 256.634C99.4752 248.381 96.7888 232.312 103.078 227.436C110.514 221.67 185.929 164.71 188.36 163.977C191.137 163.054 196.872 158.057 199.396 156.124ZM173.304 334.489C170.37 336.031 159.816 347.731 157.928 350.841L157.922 379.991C157.918 387.458 154.814 400.778 163.886 401.247C170.394 401.583 177.076 401.295 183.601 401.295L338.625 401.279C346.975 401.806 353.409 401.146 353.93 391.328C354.216 385.928 354.48 353.34 353.39 350.484C352.418 347.936 344.551 338.072 341.93 334.489C330.265 334.293 318.569 334.489 306.901 334.49L193.954 334.488C187.14 334.487 180.095 334.099 173.304 334.489ZM201.161 276.221C190.143 277.764 189.124 286.455 186.033 295.46L179.329 314.997C177.863 319.213 176.471 323.479 174.651 327.558C179.563 327.826 184.547 327.564 189.471 327.56L311.752 327.558L338.625 327.558C334.68 320.137 329.831 303.572 326.885 294.833C319.879 274.052 318.069 276.148 298.233 276.203L201.161 276.221ZM199.396 408.894C199.407 415.224 200.388 422.808 197.853 428.758L312.562 428.758L313.229 428.676C313.604 427.52 312.055 424.3 311.877 422.933C311.29 418.432 311.752 413.451 311.752 408.894L199.396 408.894ZM335.851 408.894L324.406 408.857C322.599 408.849 320.515 408.631 318.735 408.894C320.364 418.433 313.843 428.991 329.194 428.986C343.414 428.982 340.244 420.244 340.184 408.894C338.782 408.749 337.265 408.873 335.851 408.894ZM171.31 408.894C171.392 413.599 170.078 423.951 173.568 427.159C176.866 430.19 186.187 430.085 189.808 427.134C194.275 422.476 192.111 414.774 192.278 408.894L171.31 408.894ZM150.747 310.75C147.311 312.127 147.85 317.505 151.675 318.093C155.007 318.605 158.888 318.071 162.29 318.063C164.785 317.044 163.793 312.897 163.734 310.75C159.406 310.681 155.075 310.731 150.747 310.75ZM350.735 310.75L350.735 318.063C354.207 318.098 359.836 318.08 363.049 316.813C367.554 308.422 354.877 310.264 350.735 310.75Z"/>
	<path fill="#2400EE" transform="scale(2 2)" d="M318.735 408.894L318.306 408.523C318.305 406.474 318.385 403.323 322.46 405.708C323.328 407.764 321.182 405.148 318.935 408.279C322.62 408.115 332.7 407.785 335.851 408.894L324.406 408.857C322.599 408.849 320.515 408.631 318.735 408.894Z"/>
	<path fill="#2400EE" transform="scale(2 2)" d="M331.568 404.137C336.991 403.435 336.717 406.828 330.272 406.945C329.014 406.338 327.279 406.526 325.894 406.139L325.989 405.739C327.655 404.688 329.857 405.111 331.568 404.137Z"/>
	<path fill="#2400EE" transform="scale(2 2)" d="M358.251 393.852L358.543 393.792C359.151 394.26 359.396 394.717 359.275 395.51L358.576 395.763C360.952 397.273 354.549 404.026 353.284 404.137L353.149 403.723C349.601 401.43 355.758 394.537 358.251 393.852Z"/>
	<path fill="#2400EE" transform="scale(2 2)" d="M279.811 384.206C282.433 384.106 294.931 384.242 288.742 390.199C286.376 392.476 271.017 391.204 267.433 391.203L232.438 391.189C229.806 391.175 225.394 392.16 223.151 390.638C220.342 388.731 221.742 384.71 224.854 384.365C230.668 383.72 237.494 384.197 243.397 384.197L279.811 384.206Z"/>
	<path fill="#2400EE" transform="scale(2 2)" d="M238.366 367.122L270.713 367.111C275.905 367.105 281.493 366.643 286.631 367.245C290.902 367.746 290.988 373.503 286.905 374.205C284.019 374.701 276.889 374.263 273.562 374.249L224.263 374.249C222.278 373.256 219.469 371.06 221.754 368.672C224.125 366.192 234.797 367.104 238.366 367.122Z"/>
	<path fill="#2400EE" transform="scale(2 2)" d="M326.459 358.348C346.598 357.995 348.608 389.808 326.459 390.521C305.627 389.783 301.672 360.776 326.459 358.348ZM324.675 365.291C311.916 369.241 315.258 383.031 327.876 384.206C340.95 377.472 335.767 364.349 324.675 365.291Z"/>
	<path fill="#2400EE" transform="scale(2 2)" d="M184.699 357.099C206.394 355.924 209.969 387.252 188.36 391.189C165.424 391.911 163.506 359.309 184.699 357.099ZM184.699 364.268C171.83 367.965 175.605 385.31 188.36 384.206C201.386 377.916 196.229 363.58 184.699 364.268Z"/>
</svg>
