<?xml version="1.0" encoding="utf-8" ?>
<svg xmlns="http://www.w3.org/2000/svg" xmlns:xlink="http://www.w3.org/1999/xlink" width="1024" height="1024">
	<path fill="#6D6875" transform="scale(2 2)" d="M85.8536 220.748C89.653 220.529 123.519 220.256 125.663 220.909C129.679 222.134 129.942 227.356 126.094 228.835C118.154 229.194 93.8157 229.86 86.339 228.671C81.4497 227.894 82.4489 222.68 85.8536 220.748Z"/>
	<path fill="#6D6875" transform="scale(2 2)" d="M86.8787 325.531L112.869 325.511C116.915 325.506 121.425 325.094 125.406 325.625C130.329 326.282 130.292 333.417 124.562 333.629L100.137 333.598C96.4948 333.619 83.5237 335.693 82.707 330.344C82.2415 327.295 84.0513 325.884 86.8787 325.531Z"/>
	<path fill="#6D6875" transform="scale(2 2)" d="M65.0084 256.261L109.151 256.243C112.243 256.244 123.894 255.792 126.261 256.485C130.548 257.739 129.168 262.928 125.369 264.352C120.339 264.653 65.2775 264.549 64.234 264.169C59.8994 262.588 61.3 257.499 65.0084 256.261Z"/>
	<path fill="#6D6875" transform="scale(2 2)" d="M59.9474 291.597C72.7266 291.284 85.5968 291.589 98.3853 291.595L115.964 291.617C118.791 291.614 124.905 290.616 127.304 292.431C130.246 294.656 128.878 299.23 125.369 299.754L81.3346 299.755C74.4441 299.761 66.2142 300.223 59.4705 299.714C54.2959 299.324 54.5909 292.566 59.9474 291.597Z"/>
	<path fill="#6D6875" transform="scale(2 2)" d="M286.601 106.558C288.915 106.823 291.178 108.004 293.366 108.766L421.182 153.7C431.752 157.448 442.718 160.745 453.061 165.081C457.366 166.886 455.51 186.401 455.509 191.005L455.498 292.984C455.499 296.981 455.993 321.639 455.194 323.703C454.044 326.675 435.628 334.858 432.24 336.628L339.063 385.08C334.765 387.288 313.425 399.634 309.577 398.939C307.235 398.516 304.907 397.357 302.692 396.501L239.416 372.274C230.9 368.77 229.126 369.25 219.988 369.263L117.712 369.314C114.064 369.329 104.731 370.724 106.345 364.251C106.752 362.618 107.565 362.001 108.959 361.149L210.443 361.149C199.923 357.775 147.542 337.946 146.854 335.884C145.711 332.455 146.299 317.235 146.298 312.866L146.306 214.447C146.305 208.604 145.218 182.634 146.909 178.777C156.244 171.016 190.209 155.742 202.105 149.575L273.504 112.502C277.69 110.342 282.004 107.678 286.601 106.558ZM447.524 182.044C443.114 183.398 438.786 186.337 434.692 188.487L330.817 242.301C326.927 244.35 322.42 246.001 319.074 248.856L319.078 340.127C319.078 355.504 319.231 370.894 319.074 386.269C323.992 384.461 328.896 381.308 333.549 378.872L447.524 319.639C447.724 314.681 447.531 309.641 447.53 304.672L447.524 182.044ZM160.498 194.239C160.085 198.895 160.49 203.729 160.496 208.412L160.498 333.629L286.826 381.808C293.131 384.215 299.358 386.856 305.705 389.147L305.705 248.856C289.679 243.827 273.144 235.224 257.732 230.865L257.696 231.274C257.316 235.83 257.734 240.611 257.737 245.199L257.723 278.954C257.718 288.749 261.181 306.145 248.591 289.413L248.365 289.438C242.54 290.053 234.814 279.353 230.383 275.738L225.323 271.001C219.304 274.553 213.382 278.179 207.574 282.073C200.912 281.343 202.354 276.129 202.433 271.201C202.496 267.299 202.455 263.389 202.456 259.487L202.457 225.449C202.457 219.745 202.606 214.017 202.456 208.317L202.244 209.767C201.24 209.545 200.203 208.875 199.229 208.485C187.216 203.68 172.901 198.368 160.498 194.239ZM447.524 174.907C432.603 181.894 418.077 189.705 403.451 197.282L327.775 236.426C323.052 238.887 317.908 241.184 313.489 244.139L313.489 330.293C313.491 349.9 313.746 369.543 313.489 389.147C315.391 388.296 317.321 387.403 319.074 386.269C319.231 370.894 319.078 355.504 319.078 340.127L319.074 248.856C322.42 246.001 326.927 244.35 330.817 242.301L434.692 188.487C438.786 186.337 443.114 183.398 447.524 182.044C447.584 179.658 447.583 177.293 447.524 174.907ZM385.732 149.838L269.488 210.934C265.673 212.928 261.193 214.792 257.732 217.305L265.771 220.748C271.045 216.966 277.433 214.118 283.166 211.033L381.735 159.13C393.891 152.756 391.284 155.621 404.939 160.142C410.744 162.064 433.457 168.38 436.931 171.216L441.006 169.18C434.385 166.651 427.591 164.501 420.895 162.173L385.732 149.838ZM154.239 186.892L154.239 331.418L160.498 333.629L160.496 208.412C160.49 203.729 160.085 198.895 160.498 194.239C172.901 198.368 187.216 203.68 199.229 208.485C200.203 208.875 201.24 209.545 202.244 209.767L202.456 208.317L202.456 205.041C186.516 200.36 170.2 192.394 154.239 186.892ZM286.601 115.077C280.614 117.292 274.226 121.056 268.478 123.991L169.709 175.095C166.293 176.869 162.815 178.542 159.538 180.567C162.437 181.432 165.193 182.556 168.044 183.542C172.064 180.901 176.758 178.828 181.04 176.609L206.738 163.403C216.055 158.645 289.231 119.829 291.178 120.268C294.519 121.02 297.738 122.51 301.003 123.562C310.141 126.504 321.66 129.958 330.475 133.618C331.75 132.977 333.061 132.373 334.278 131.627C318.328 126.294 302.516 120.523 286.601 115.077ZM344.434 135.455C321.54 147.967 297.963 159.332 274.807 171.366L232.288 193.633C226.944 196.395 221.684 199.34 216.251 201.926C219.3 202.801 222.215 204.467 225.323 205.041C230.937 201.152 237.436 198.341 243.413 195.03C273.639 178.289 306.153 161.833 337.205 146.255C340.869 144.416 344.796 141.984 348.701 140.755C354.48 141.975 365.299 145.93 371.075 148.108L375.016 146.245C364.913 142.432 354.47 139.316 344.434 135.455ZM251.247 224.658C251.251 245.3 251.492 265.979 251.247 286.617C250.465 287.758 249.742 288.635 248.591 289.413C261.181 306.145 257.718 288.749 257.723 278.954L257.737 245.199C257.734 240.611 257.316 235.83 257.696 231.274L257.732 230.865C273.144 235.224 289.679 243.827 305.705 248.856C305.693 247.288 305.639 245.705 305.705 244.139C298.113 241.238 257.608 224.558 251.247 224.658ZM210.443 208.317L210.443 271.001C212.402 269.694 214.379 268.411 216.251 266.982C215.882 261.453 216.24 255.651 216.242 250.092L216.251 214.984C225.534 217.76 234.385 222.13 243.743 224.658C243.742 223.357 243.715 222.049 243.743 220.748C232.568 216.846 221.705 211.96 210.443 208.317Z"/>
	<path fill="#E5989B" transform="scale(2 2)" d="M216.251 266.982C215.882 261.453 216.24 255.651 216.242 250.092L216.251 214.984C225.534 217.76 234.385 222.13 243.743 224.658L243.743 277.29C240.889 274.76 238.098 272.185 235.37 269.519C225.75 260.114 227.46 260.217 216.251 266.982Z"/>
	<path fill="#E5989B" transform="scale(2 2)" d="M348.701 140.755C354.48 141.975 365.299 145.93 371.075 148.108C356.462 156.692 341.035 164.076 326.08 172.061L264.496 204.778C258.866 207.76 253.335 210.99 247.684 213.915C240.261 210.94 232.654 208.208 225.323 205.041C230.937 201.152 237.436 198.341 243.413 195.03C273.639 178.289 306.153 161.833 337.205 146.255C340.869 144.416 344.796 141.984 348.701 140.755Z"/>
	<path fill="#FFB4A2" transform="scale(2 2)" d="M168.044 183.542C172.064 180.901 176.758 178.828 181.04 176.609L206.738 163.403C216.055 158.645 289.231 119.829 291.178 120.268C294.519 121.02 297.738 122.51 301.003 123.562C310.141 126.504 321.66 129.958 330.475 133.618C304.042 147.765 277.276 161.353 250.686 175.21L225.077 188.44C219.015 191.648 212.887 195.323 206.582 198.009L181.305 188.527C176.927 186.871 172.499 184.94 168.044 183.542Z"/>
	<path fill="#FFB4A2" transform="scale(2 2)" d="M265.771 220.748C271.045 216.966 277.433 214.118 283.166 211.033L381.735 159.13C393.891 152.756 391.284 155.621 404.939 160.142C410.744 162.064 433.457 168.38 436.931 171.216L328.176 227.244C321.946 230.514 315.567 233.63 309.577 237.328C295.354 231.22 280.463 225.618 265.771 220.748Z"/>
	<path fill="#FFB4A2" transform="scale(2 2)" d="M160.498 194.239C172.901 198.368 187.216 203.68 199.229 208.485C200.203 208.875 201.24 209.545 202.244 209.767L202.456 208.317C202.606 214.017 202.457 219.745 202.457 225.449L202.456 259.487C202.455 263.389 202.496 267.299 202.433 271.201C202.354 276.129 200.912 281.343 207.574 282.073C213.382 278.179 219.304 274.553 225.323 271.001L230.383 275.738C234.814 279.353 242.54 290.053 248.365 289.438L248.591 289.413C261.181 306.145 257.718 288.749 257.723 278.954L257.737 245.199C257.734 240.611 257.316 235.83 257.696 231.274L257.732 230.865C273.144 235.224 289.679 243.827 305.705 248.856L305.705 389.147C299.358 386.856 293.131 384.215 286.826 381.808L160.498 333.629L160.496 208.412C160.49 203.729 160.085 198.895 160.498 194.239ZM207.574 282.073C207.287 283.693 207.754 286.816 209.737 287.249C211.328 287.596 227.245 277.718 230.383 275.738L225.323 271.001C219.304 274.553 213.382 278.179 207.574 282.073Z"/>
	<path fill="#E5989B" transform="scale(2 2)" d="M447.524 182.044L447.53 304.672C447.531 309.641 447.724 314.681 447.524 319.639L333.549 378.872C328.896 381.308 323.992 384.461 319.074 386.269C319.231 370.894 319.078 355.504 319.078 340.127L319.074 248.856C322.42 246.001 326.927 244.35 330.817 242.301L434.692 188.487C438.786 186.337 443.114 183.398 447.524 182.044ZM432.325 277.29C432.28 287.581 435.113 298.836 434.405 308.775C426.141 311.865 418.517 316.482 410.642 320.422L359.253 346.715C350.343 351.372 341.3 357.086 331.707 360.15C329.334 362.557 332.031 365.416 334.278 366.371C340.651 364.196 349.26 358.992 355.338 355.834L425.104 320.085C429.06 318.078 434.194 316.186 437.747 313.638C441.318 311.078 438.034 293.702 437.643 288.782C437.332 284.876 438.716 276.97 433.095 276.327C432.501 276.676 432.512 276.63 432.325 277.29Z"/>
	<path fill="#6D6875" transform="scale(2 2)" d="M426.228 303.1C426.111 300.289 419.883 264.55 429.819 270.972C431.615 272.133 431.965 275.353 432.325 277.29C432.28 287.581 435.113 298.836 434.405 308.775C426.141 311.865 418.517 316.482 410.642 320.422L359.253 346.715C350.343 351.372 341.3 357.086 331.707 360.15C329.465 359.561 327.216 357.266 328.089 354.8C329.265 351.475 375.859 328.764 380.864 326.228L411.434 310.522C416.338 308.021 421.22 305.382 426.228 303.1Z"/>
</svg>
