<?xml version="1.0" encoding="utf-8" ?>
<svg xmlns="http://www.w3.org/2000/svg" xmlns:xlink="http://www.w3.org/1999/xlink" width="1024" height="1024">
	<path fill="#2400EE" transform="scale(2 2)" d="M204.851 290.342L241.032 290.335C244.433 290.334 258.361 289.193 260.614 291.089C265.332 295.06 258.87 297.332 254.687 297.25L218.934 297.251C214.223 297.25 206.676 297.666 202.268 297.183C197.121 296.62 194.92 290.522 204.851 290.342Z"/>
	<path fill="#2400EE" transform="scale(2 2)" d="M153.15 93.5315C154.915 93.2527 156.589 94.6777 156.644 96.4929C156.747 99.9218 142.244 108.182 139.045 110.457C109.137 131.73 85.8425 171.15 76.2892 205.63C70.1398 227.825 69.245 247.959 97.3396 253.894C111.153 256.813 107.587 252.862 110.686 268.3C124.104 335.159 194.834 384.265 262.415 374.764C265.144 374.38 275.978 370.634 274.714 376.953C274.453 378.262 273.808 378.878 272.734 379.599C235.088 391.121 184.902 373.85 155.098 350.353C129.083 329.842 106.852 294.95 102.927 261.69C53.5531 254.463 62.7727 216.529 78.0376 180.241C90.1337 151.485 108.513 127.102 132.44 107.333C138.573 102.266 145.756 96.5512 153.15 93.5315Z"/>
	<path fill="#2400EE" transform="scale(2 2)" d="M234.796 94.9932C290.168 94.5934 330.997 112.574 364.245 159.52C373.443 161.171 382.112 162.882 390.804 166.441C436.386 185.107 458.902 236.886 439.81 282.644C437.028 289.31 429.62 303.876 422.687 306.749C415.764 303.657 421.572 299.195 424.401 295.572C460.997 248.725 430.446 178.596 372.402 167.801C368.705 167.113 364.123 167.486 360.842 165.451C358.928 163.553 357.419 161.088 355.845 158.896C343.981 142.379 327.475 128.416 309.861 118.464C232.478 74.7383 134.88 119.017 110.86 203.59C110.007 206.592 109.989 215.282 106.013 215.954C99.5597 217.043 103.468 205.977 104.166 203.339C120.238 142.612 172.459 101.147 234.796 94.9932Z"/>
	<path fill="#2400EE" transform="scale(2 2)" d="M397.936 322.448C407.885 321.532 405.823 325.371 404.136 334.109C394.923 381.837 373.072 409.216 322.722 406.121C318.691 405.873 314.5 405.762 310.536 404.979C307.648 408.435 304.985 412.077 302.347 415.724C301.536 416.772 300.694 417.873 299.257 417.95C288.613 418.52 303.237 402.897 305.218 400.708C305.2 343.404 345.922 326.282 397.936 322.448ZM394.613 329.352C352.609 332.968 316.627 346.812 311.704 392.36C316.318 388.312 320.375 383.546 324.843 379.318C329.616 374.802 357.258 352.672 363.8 353.005C367.471 353.192 367.507 356.958 365.374 358.999L365.097 359.182C361.498 361.523 357.473 363.176 353.83 365.469C342.031 372.896 323.94 387.317 315.395 398.947C368.16 402.759 389.61 381.555 397.936 329.352L394.613 329.352Z"/>
	<path fill="#2400EE" transform="scale(2 2)" d="M195.145 183.35C201.299 183.14 206.356 187.332 207.876 193.191C209.985 201.316 203.555 208.845 198.461 214.386C185.196 228.815 164.989 240.751 145.852 245.267C150.81 253.614 162.994 258.336 172.216 258.708C184.475 259.203 220.485 247.506 230.569 238.281L230.299 237.297C221.827 205.58 257.6 178.702 287.805 196.953C293.697 200.514 290.565 204.974 287.563 204.519C285.838 204.257 284.094 202.587 282.652 201.67C261.328 188.095 231.407 207.602 236.818 234.586C240.223 251.568 257.544 262.133 274.257 258.505C286.105 255.933 292.438 247.975 298.627 238.281C294.768 223.134 300.958 208.52 312.914 198.782C332.103 183.657 359.696 191.773 369.857 213.146C379.004 232.388 368.844 254.403 350.149 263.096C333.042 271.05 310.21 263.429 302.347 245.994C297.962 250.927 293.978 255.863 288.347 259.492C267.941 272.64 245.741 264.951 233.277 245.267C230.35 246.452 227.512 248.101 224.693 249.529C204.859 259.571 178.798 270.847 157.051 261.86C150.36 259.095 142.595 254.192 139.693 247.249C135.503 248.03 121.337 250.825 118.355 249.085C116.178 247.816 116.673 243.715 119.305 243.229C125.677 242.053 132.928 241.628 139.693 240.459C141.349 237.128 142.551 233.579 144.266 230.265C153.302 212.8 174.999 185.42 195.145 183.35ZM332.643 197.797C288.739 205.449 301.001 263.675 337.889 259.214C375.481 257.109 377.293 196.814 332.643 197.797ZM195.145 190.075C176.896 192.97 155.49 221.588 147.517 238.281C149.45 237.704 151.292 237.037 153.15 236.255C169.81 229.398 193.72 216.313 200.715 199.611C202.443 195.486 200.99 188.831 195.145 190.075Z"/>
</svg>
