<?xml version="1.0" encoding="utf-8" ?>
<svg xmlns="http://www.w3.org/2000/svg" xmlns:xlink="http://www.w3.org/1999/xlink" width="1024" height="1024">
	<path fill="#E5989B" transform="scale(2 2)" d="M80.2525 384.155L80.2294 360.821C80.2245 357.013 78.9056 348.471 81.6655 345.349L82.0148 345.343C83.6389 347.183 84.6666 353.116 85.5917 355.683C98.1859 390.637 150.188 387.358 162.573 350.883C163.529 348.068 164.087 345.058 164.752 342.161C165.643 343.623 166.008 345.276 166.894 346.745C167.106 350.932 166.909 355.193 166.903 359.387L166.894 384.155L106.28 384.164C96.1263 384.162 85.9318 383.912 75.7924 384.155C77.2505 383.973 78.7847 384.116 80.2525 384.155Z"/>
	<path fill="#FFB4A2" transform="scale(2 2)" d="M215.742 298.041C217.071 301.275 218.324 304.55 219.986 307.632C230.953 327.973 258.422 335.028 278.365 323.99C292.42 316.211 299.033 304.791 303.303 289.78L303.303 375.203L215.742 375.203C216.261 349.769 214.585 323.146 215.742 298.041Z"/>
	<path fill="#6D6875" transform="scale(2 2)" d="M253.02 240.657C304.038 235.793 317.038 313.315 260.801 322.234C206.31 325.141 201.06 246.032 253.02 240.657ZM225.751 288.3C225.94 286.651 225.691 284.927 225.764 283.261C226.289 271.303 238.053 258.361 249.047 255.243C261.965 251.581 277.287 256.281 284.902 267.609C286.089 269.374 288.007 274.604 289.486 275.439C274.745 225.446 213.52 253.759 225.751 288.3Z"/>
	<path fill="#FFB4A2" transform="scale(2 2)" d="M225.751 288.3C225.94 286.651 225.691 284.927 225.764 283.261C226.289 271.303 238.053 258.361 249.047 255.243C261.965 251.581 277.287 256.281 284.902 267.609C286.089 269.374 288.007 274.604 289.486 275.439C292.38 307.06 259.209 326.856 235.76 306.516C231.284 302.634 225.118 294.645 225.751 288.3Z"/>
	<path fill="#6D6875" transform="scale(2 2)" d="M125.314 148.569C130.545 149.056 134.116 160.459 136.508 165.066C140.141 172.062 144.513 179.34 147.445 186.62L171.603 186.613C174.856 186.607 190.46 184.613 185.915 192.497C180.741 201.47 165.183 215.127 157.932 224.575C159.438 234.32 164.994 257.098 164.752 265.875C163.467 268.038 161.622 269.572 159.131 268.326C152.115 264.815 131.619 253.206 125.314 248.207C116.899 249.5 99.1503 265.135 89.1822 268.514C87.6042 267.839 86.8115 267.271 85.784 265.875C85.1597 258.867 90.4702 232.203 91.785 224.575C86.1695 218.432 80.6276 212.214 74.9413 206.136C73.073 204.139 54.9787 188.16 65.852 186.761C69.7482 186.26 74.0251 186.615 77.9744 186.614L102.742 186.62L116.046 161.507C118.12 157.628 120.636 149.645 125.314 148.569ZM107.213 194.687C97.8334 195.551 85.6175 194.429 75.7924 194.687C81.3355 203.365 93.133 211.911 99.7701 221.536C99.9184 225.736 96.4056 251.794 94.8941 256.339C95.9847 255.724 96.9081 255.147 97.8231 254.272C98.5838 251.752 98.9245 249.175 99.7701 246.656C100.272 240 104.703 228.083 101.45 222.144C97.4524 214.846 85.378 205.967 82.6016 200.353C90.6187 199.925 99.1854 201.371 107.093 200.177C113.092 199.272 122.812 175.135 126.866 169.214C128.787 174.352 140.022 196.236 143.006 199.564C148.28 201.224 162.037 200.216 168.371 200.353C170.611 198.542 172.492 196.385 174.828 194.687L155.822 194.7C153.368 194.702 144.683 195.501 142.811 193.838C139.918 191.268 128.351 166.715 125.314 161.276C123.003 166.22 110.617 190.696 107.213 194.687Z"/>
	<path fill="#E5989B" transform="scale(2 2)" d="M99.7701 246.656C104.705 243.699 120.824 231.279 126.14 232.46C129.345 233.172 150.966 246.536 154.089 249.256C154.633 251.928 155.099 254.587 155.486 257.286C146.504 251.483 135.01 243.686 125.314 239.181C117.952 241.353 105.37 250.21 97.8231 254.272C98.5838 251.752 98.9245 249.175 99.7701 246.656Z"/>
	<path fill="#FFB4A2" transform="scale(2 2)" d="M126.866 169.214C128.787 174.352 140.022 196.236 143.006 199.564C148.28 201.224 162.037 200.216 168.371 200.353C146.214 229.699 147.638 210.086 154.089 249.256C150.966 246.536 129.345 233.172 126.14 232.46C120.824 231.279 104.705 243.699 99.7701 246.656C100.272 240 104.703 228.083 101.45 222.144C97.4524 214.846 85.378 205.967 82.6016 200.353C90.6187 199.925 99.1854 201.371 107.093 200.177C113.092 199.272 122.812 175.135 126.866 169.214Z"/>
	<path fill="#6D6875" transform="scale(2 2)" d="M257.354 84.2652C262.758 84.5517 266.378 96.3656 268.481 100.576L282.055 127.26L310.103 127.238C313.386 127.234 331.522 125.014 326.813 133.203C324.706 136.868 320.937 140.304 318.133 143.465C310.678 151.871 302.284 160.709 295.157 169.214C296.741 184.49 301.104 201.655 303.303 217.338C299.86 225.813 290.152 216.288 284.211 212.81L259.401 198.367C256.777 196.759 252.077 200.987 249.833 202.296L227.433 215.246C223.562 217.45 212.58 225.955 213.363 215.251C213.687 210.831 215.079 206.147 215.923 201.778L221.895 171.053C219.408 168.469 217.165 165.678 214.829 162.961L203.153 149.341C200.558 146.27 190.042 135.734 189.734 132.193C189.128 125.229 202.564 127.252 206.344 127.251L232.949 127.26C236.88 117.629 242.492 108.363 247.26 99.1088C249.776 94.2261 251.823 86.1983 257.354 84.2652ZM258.714 104.103C255.594 110.676 244.85 134.415 240.699 139.161C237.482 142.84 212.715 140.678 206.612 141.085C206.956 141.449 207.629 142.339 208.05 142.532C212.919 148.034 227.028 163.239 230.162 169.214C228.991 178.963 226.252 189.554 224.749 199.564L225.381 199.648C226.393 199.161 227.146 198.568 227.985 197.827L227.985 197.827C237.421 194.289 248.047 184.909 258.714 180.511C264.847 184.718 281.711 195.738 287.851 198.367L284.669 179.58C283.745 174.427 282.605 169.238 282.055 164.034C287.897 156.039 297.091 148.486 302.031 141.085C298.212 141.006 280.252 141.624 278.159 140.989C275.466 140.172 260.579 108.142 258.714 104.103ZM257.354 96.8067C255.832 100.135 238.751 134.045 237.876 134.721C236.611 135.698 205.515 135.229 201.248 135.226C203.174 137.04 204.88 139.088 206.612 141.085C212.715 140.678 237.482 142.84 240.699 139.161C244.85 134.415 255.594 110.676 258.714 104.103C260.579 108.142 275.466 140.172 278.159 140.989C280.252 141.624 298.212 141.006 302.031 141.085L309.009 141.085C310.979 139.224 312.794 137.218 314.629 135.226C309.379 135.236 280.003 135.833 277.652 134.814C275.786 134.005 259.558 100.615 257.354 96.8067Z"/>
	<path fill="#E5989B" transform="scale(2 2)" d="M302.031 141.085L309.009 141.085C304.275 147.922 289.866 161.505 287.851 167.266C287.24 173.383 291.335 194.276 292.662 201.322C293.184 203.767 293.732 206.209 293.843 208.715C292.534 208.183 291.225 207.696 290.026 206.938C278.859 201.103 268.543 193.673 257.354 187.963C251.255 193.336 235.669 201.07 227.985 205.681C226.31 206.573 224.7 207.729 223.068 208.715L224.749 199.564L225.381 199.648C226.393 199.161 227.146 198.568 227.985 197.827L227.985 197.827C237.421 194.289 248.047 184.909 258.714 180.511C264.847 184.718 281.711 195.738 287.851 198.367L284.669 179.58C283.745 174.427 282.605 169.238 282.055 164.034C287.897 156.039 297.091 148.486 302.031 141.085Z"/>
	<path fill="#FFB4A2" transform="scale(2 2)" d="M258.714 104.103C260.579 108.142 275.466 140.172 278.159 140.989C280.252 141.624 298.212 141.006 302.031 141.085C297.091 148.486 287.897 156.039 282.055 164.034C282.605 169.238 283.745 174.427 284.669 179.58L287.851 198.367C281.711 195.738 264.847 184.718 258.714 180.511C248.047 184.909 237.421 194.289 227.985 197.827L227.985 197.827C227.146 198.568 226.393 199.161 225.381 199.648L224.749 199.564C226.252 189.554 228.991 178.963 230.162 169.214C227.028 163.239 212.919 148.034 208.05 142.532C207.629 142.339 206.956 141.449 206.612 141.085C212.715 140.678 237.482 142.84 240.699 139.161C244.85 134.415 255.594 110.676 258.714 104.103ZM208.05 142.532C212.919 148.034 227.028 163.239 230.162 169.214C228.991 178.963 226.252 189.554 224.749 199.564L225.381 199.648C226.393 199.161 227.146 198.568 227.985 197.827C230.553 192.833 233.013 176.07 234.092 169.214C231.289 165.77 210.141 142.925 208.05 142.532Z"/>
	<path fill="#6D6875" transform="scale(2 2)" d="M337.503 384.155L337.499 213.004C337.492 177.685 336.757 185.851 361.831 160.239L418.083 103.034C424.645 96.4608 433.79 86.184 443.463 96.0622C448.938 101.654 447.891 109.608 447.867 116.757L447.862 385.07C464.035 390.893 465.835 413.2 449.517 420.629C441.713 424.182 424.323 422.679 415.653 422.673L91.1725 422.678C84.2569 422.677 77.2876 422.848 70.3785 422.595C47.3629 421.75 45.1705 389.054 67.4959 384.155C67.349 374.718 67.489 365.258 67.486 355.818C67.4813 341.167 64.6574 329.503 83.4539 329.75C88.7174 294.848 132.454 283.331 153.226 312.285C165.925 329.986 160.994 354.93 143.359 367.386C118.341 385.058 86.1078 367.772 83.4539 337.241C72.4662 337.242 75.7875 346.516 75.7858 355.36L75.7924 384.155C85.9318 383.912 96.1263 384.162 106.28 384.164L166.894 384.155L166.903 359.387C166.909 355.193 167.106 350.932 166.894 346.745C166.971 342.308 167.399 339.533 163.229 337.241C163.186 334.767 163.01 332.215 163.229 329.75C176.889 331.124 174.865 342.191 174.854 352.381C174.842 362.928 174.461 373.622 174.828 384.155L201.248 384.155L201.253 294.682C201.253 290.638 199.109 279.505 205.749 280.068C210.915 280.505 209.254 291.643 209.247 295.045L209.227 375.203C211.426 375.368 213.548 375.496 215.742 375.203L303.303 375.203L303.303 289.78C302.354 274.71 310.837 279.793 311.21 284.395C311.505 288.04 311.271 291.847 311.258 295.508L311.244 384.155L328.306 384.166C331.345 384.177 334.474 384.345 337.503 384.155ZM63.4486 411.474C64.7636 407.91 63.8717 401.324 70.4815 400.162C76.877 399.037 88.7889 399.655 95.607 399.654L422.115 399.678C434.403 399.692 444.413 396.322 452.046 407.141C455.393 391.151 442.084 391.991 430.847 392.029L98.769 392.046C89.5257 392.046 80.2026 391.787 70.9683 392.024C60.8891 392.282 56.2405 403.374 63.4486 411.474ZM345.411 384.155C347.279 384.175 349.15 384.219 351.018 384.155L351.018 375.203C350.485 370.13 351.007 364.901 351.018 359.807L351.018 231.792C351.055 218.268 354.267 223.595 362.28 227.984C373.263 234 379.127 223.825 385.888 217L407.377 195.522C410.271 192.607 412.97 189.459 415.926 186.62C424.778 194.56 426.56 202.939 439.988 198.367C439.808 195.415 439.765 192.554 439.988 189.6C422.689 201.077 419.005 176.108 412.684 180.556C409.864 182.54 407.381 185.919 404.96 188.402C398.659 194.867 376.643 218.494 371.473 221.624C361.689 227.549 356.654 212.199 349.265 217.965C343.113 222.767 345.402 232.533 345.402 239.594L345.411 384.155ZM345.411 210.444C347.254 209.708 349.083 209.157 351.018 208.715C347.393 191.242 354.695 188.128 366.004 176.577L402.736 139.95C409.535 133.073 429.135 110.548 436.164 106.188C437.493 106.508 438.717 106.951 439.988 107.444C439.564 103.949 437.625 99.5746 433.414 100.175C430.947 100.526 402.52 130.606 398.536 134.621L365.374 168.257C344.404 189.456 345.443 181.614 345.411 210.444ZM96.5614 352.257C96.7438 350.694 96.0859 348.807 95.7466 347.275C86.716 306.503 142.16 297.609 150.141 329.639C150.771 332.167 150.649 334.829 151.743 337.241C153.124 308.607 121.062 293.436 100.665 312.62C89.7842 322.853 89.0846 339.877 96.5614 352.257Z"/>
	<path fill="#FFB4A2" transform="scale(2 2)" d="M209.227 375.203C211.426 375.368 213.548 375.496 215.742 375.203C215.789 378.182 215.911 381.18 215.742 384.155C213.577 384.058 211.395 384.133 209.227 384.155L209.227 375.203Z"/>
	<path fill="#E5989B" transform="scale(2 2)" d="M303.303 375.203L303.303 384.155L215.742 384.155C215.911 381.18 215.789 378.182 215.742 375.203L303.303 375.203Z"/>
	<path fill="#E5989B" transform="scale(2 2)" d="M439.988 375.203L439.988 384.155L351.018 384.155L351.018 375.203C354.086 374.921 357.311 375.169 360.401 375.181L439.988 375.203Z"/>
	<path fill="#FFB4A2" transform="scale(2 2)" d="M96.5614 352.257C96.7438 350.694 96.0859 348.807 95.7466 347.275C86.716 306.503 142.16 297.609 150.141 329.639C150.771 332.167 150.649 334.829 151.743 337.241C152.389 359.785 120.669 376.057 101.092 357.159C99.4914 355.614 98.0235 353.931 96.5614 352.257Z"/>
	<path fill="#FFB4A2" transform="scale(2 2)" d="M436.164 106.188C437.493 106.508 438.717 106.951 439.988 107.444C439.617 123.739 439.979 140.134 439.981 156.439C439.982 166.577 443.113 180.129 431.913 185.487C424.887 179.331 417.404 167.03 407.074 174.816C402.753 178.073 399.083 182.979 395.333 186.912C386.95 195.704 375.951 207.448 367.016 215.441C360.382 211.853 359.735 208.038 351.018 208.715C347.393 191.242 354.695 188.128 366.004 176.577L402.736 139.95C409.535 133.073 429.135 110.548 436.164 106.188Z"/>
	<path fill="#FFB4A2" transform="scale(2 2)" d="M63.4486 411.474C64.7636 407.91 63.8717 401.324 70.4815 400.162C76.877 399.037 88.7889 399.655 95.607 399.654L422.115 399.678C434.403 399.692 444.413 396.322 452.046 407.141C450.75 410.08 448.595 412.705 445.495 413.838C441.774 415.199 412.696 414.512 405.915 414.511L162.976 414.51C133.609 414.51 104.196 414.87 74.836 414.504C70.9179 414.455 66.2967 414.716 63.4486 411.474Z"/>
	<path fill="#FFB4A2" transform="scale(2 2)" d="M415.926 186.62C424.778 194.56 426.56 202.939 439.988 198.367L439.988 375.203L360.401 375.181C357.311 375.169 354.086 374.921 351.018 375.203C350.485 370.13 351.007 364.901 351.018 359.807L351.018 231.792C351.055 218.268 354.267 223.595 362.28 227.984C373.263 234 379.127 223.825 385.888 217L407.377 195.522C410.271 192.607 412.97 189.459 415.926 186.62Z"/>
</svg>
