<?xml version="1.0" encoding="utf-8" ?>
<svg xmlns="http://www.w3.org/2000/svg" xmlns:xlink="http://www.w3.org/1999/xlink" width="1024" height="1024">
	<path fill="#2400EE" transform="scale(2 2)" d="M53.6753 191.052L83.9421 191.057C88.2205 191.056 92.9318 190.599 97.1557 191.043C104.604 191.827 104.134 199.849 97.2751 200.596L67.1948 200.568C62.83 200.57 58.1364 201.038 53.8046 200.592C46.6289 199.852 46.256 191.761 53.6753 191.052Z"/>
	<path fill="#2400EE" transform="scale(2 2)" d="M195.494 202.474C185.772 203.476 175.978 203.808 166.248 204.85C160.691 205.445 154.201 206.938 148.862 207.242C145.235 207.447 143.065 203.206 145.12 200.336C147.395 197.159 156.284 197.442 159.747 197.052C172.905 195.574 190.775 195.537 202.913 193.242C203.536 193.922 206.803 195.199 206.724 195.781C206.447 197.844 201.845 200.358 200.299 201.784C198.705 201.705 197.154 201.674 195.62 202.2L195.494 202.474Z"/>
	<path fill="#2400EE" transform="scale(2 2)" d="M52.6396 231.744L121.153 231.741C124.201 231.74 127.341 231.602 130.381 231.783C136.725 232.161 137.151 240.106 130.517 241.246C122.284 241.367 53.8073 242.211 50.5242 240.266C46.5218 237.894 48.4398 232.353 52.6396 231.744Z"/>
	<path fill="#2400EE" transform="scale(2 2)" d="M82.7255 158.963C88.1862 158.696 93.7886 158.958 99.2631 158.958L157.78 158.954C161.121 158.954 167.727 158.43 170.799 159.288C174.966 160.452 174.111 166.106 170.259 167.932C163.321 168.235 156.226 167.942 149.273 167.941L108.5 167.91C103.7 167.896 86.4542 168.574 83.0715 167.617C77.685 166.094 78.2056 160.973 82.7255 158.963Z"/>
	<path fill="#D400F1" transform="scale(2 2)" d="M285.244 214.273L285.609 214.247C293.4 213.749 290.974 222.943 290.971 228.052L290.955 252.509C293.095 252.734 295.324 252.553 297.475 252.533L345.071 252.534C349.114 252.529 356.258 251.889 359.831 252.622C364.343 253.548 364.595 259.061 360.782 260.999C358.048 261.576 354.795 261.053 351.989 261.024L302.337 261.002C297.322 261.007 292.055 261.43 287.068 261.041C279.824 260.477 282.691 246.782 282.713 240.98C282.734 235.342 280.569 217.178 285.244 214.273Z"/>
	<path fill="#D400F1" transform="scale(2 2)" d="M308.683 82.1021C312.348 82.0142 314.133 85.7474 312.217 88.8824C307.629 96.393 296.486 102.449 290.955 113.742C310.229 106.835 322.518 101.044 344.621 101.691C386.409 102.914 419.902 133.157 427.375 173.814C428.217 178.397 428.84 182.971 428.697 187.643C427.531 189.627 425.551 190.978 423.125 190.384C419.157 189.413 419.772 181.932 419.475 178.88C416.508 148.336 392.5 120.348 362.886 112.753C343.097 107.678 314.221 110.724 296.229 121.312C297.947 125.552 304.1 133.128 307.035 137.283C312.8 145.446 312.068 146.986 303.035 150.235C296.041 152.781 289.203 155.749 281.959 157.535C299.948 164.129 320.872 152.035 329.584 136.291C330.517 134.606 335.43 119.053 340.336 127.738C341.963 130.618 338.761 136.236 337.501 138.764C323.175 167.514 297.314 170.58 268.666 162.931C266.943 162.471 264.083 161.825 263.194 160.118C260.356 154.666 273.127 152.369 276.288 151.22L300.436 142.393C296.407 136.03 281.566 117.461 279.754 112.933L279.807 112.82C281.457 109.207 292.895 97.2528 296.229 93.909C270.677 101.418 274.196 107.429 261.274 129.509C259.455 132.619 257.445 132.357 254.606 130.627C254.092 129.781 253.727 128.859 253.331 127.953C255.425 120.227 268.14 97.6307 275.608 93.0478C281.632 89.3508 301.409 82.871 308.683 82.1021Z"/>
	<path fill="#2400EE" transform="scale(2 2)" d="M94.6788 277.866C94.9999 274.989 92.8168 263.089 100.589 266.179C106.553 268.55 105.554 285.86 93.8736 290.272C101.255 320.702 117.908 311.758 122.19 315.549C124.791 317.852 122.561 321.421 120.728 323.375C127.636 329.673 135.389 327.247 144.218 327.255C144.847 287.335 212.646 279.651 218.913 327.255L249.677 327.255C245.216 328.662 238.498 325.735 234.483 327.517L234.729 327.728C245.458 326.813 253.86 327.662 264.02 327.711C271.899 327.749 291.463 325.784 297.903 328.48C292.044 335.748 292.856 335.762 284.108 335.763L235.802 335.737C231.591 335.734 222.901 335.36 218.913 336.251L218.678 336.49C210.412 378.242 152.465 380.769 144.218 336.251C129.584 337.354 117.775 338.517 111.722 323.375C101.359 320.527 93.2959 312.661 88.8574 302.998C87.2695 299.541 83.5189 288.043 85.0209 284.458C86.6233 280.633 91.94 284.2 94.6788 277.866ZM178.394 303.096C142.835 306.966 144.355 361.963 184.811 359.249C223.169 353.7 213.483 298.814 178.394 303.096Z"/>
	<defs>
		<linearGradient id="gradient_0" gradientUnits="userSpaceOnUse" x1="454.25232" y1="248.15303" x2="216.40192" y2="295.90317">
			<stop offset="0" stop-color="#BB02F7"/>
			<stop offset="1" stop-color="#6E0EFB"/>
		</linearGradient>
	</defs>
	<path fill="url(#gradient_0)" transform="scale(2 2)" d="M202.913 193.242C216.929 193.985 232.362 193.05 246.599 193.263C291.106 193.926 339.888 201.499 377.218 227.49C393.869 239.084 396.607 242.398 415.978 247.871C447.181 256.687 463.032 266.139 463.109 300.476C463.132 310.923 465.223 313.994 454.848 319.927C452.589 335.515 443.574 336.277 430.009 336.272L413.536 336.251C403.198 380.684 344.667 377.124 339.43 336.251L231.085 336.264C227.071 336.277 222.901 336.66 218.913 336.251C222.901 335.36 231.591 335.734 235.802 335.737L284.108 335.763C292.856 335.762 292.044 335.748 297.903 328.48C291.463 325.784 271.899 327.749 264.02 327.711C253.86 327.662 245.458 326.813 234.729 327.728L234.483 327.517C238.498 325.735 245.216 328.662 249.677 327.255L339.43 327.255L339.429 327.022C339.453 309.078 356.836 295.268 373.637 293.848C393.262 292.19 412.016 307.44 413.536 327.255C422.731 327.252 431.988 327.515 441.177 327.255C446.586 323.473 445.609 320.899 447.125 315.226L447.215 314.9C449.387 312.904 452.415 311.613 454.848 309.893L454.846 298.5C454.543 257.499 422.32 262.666 397.306 251.028C383.261 244.493 371.254 232.466 356.811 225.214C305.779 199.59 250.656 201.571 195.494 202.474L195.62 202.2C197.154 201.674 198.705 201.705 200.299 201.784C201.845 200.358 206.447 197.844 206.724 195.781C206.803 195.199 203.536 193.922 202.913 193.242ZM373.792 303.096C340.198 302.1 337.967 359.263 374.49 360.059C375.661 360.084 377.822 359.89 378.838 359.249C393.093 359.652 405.132 345.567 405.463 331.919C405.844 316.188 388.517 297.319 373.792 303.096Z"/>
</svg>
