<?xml version="1.0" encoding="utf-8" ?>
<svg xmlns="http://www.w3.org/2000/svg" xmlns:xlink="http://www.w3.org/1999/xlink" width="1024" height="1024">
	<path fill="#2400EE" transform="scale(2 2)" d="M73.0659 305.256C77.9348 304.89 79.4546 311.115 83.4934 312.871C86.3831 314.127 93.3918 313.378 96.8596 313.639C102.05 314.03 103.458 318.435 98.9923 321.034C88.421 321.084 77.9787 321.947 71.3778 311.698C69.5461 308.854 70.3758 306.899 73.0659 305.256Z"/>
	<path fill="#2400EE" transform="scale(2 2)" d="M186.059 313.708L258.968 313.702C261.401 313.703 270.279 312.942 272.062 314.405C275.026 316.838 274.093 319.91 270.743 321.034L213.444 321.021C208.464 321.015 188.345 322.209 184.892 320.505C181.812 318.984 182.786 314.303 186.059 313.708Z"/>
	<path fill="#2400EE" transform="scale(2 2)" d="M182.119 199.25C186.175 199.905 185.997 204.609 187.111 207.751C194.798 229.442 215.314 229.654 234.423 229.64L262.106 229.625C265.105 229.625 271.797 229.025 274.369 230.315C278.399 232.336 276.842 236.22 273.217 237.205L236.999 237.216C214.494 237.209 192.019 237.88 181.063 212.526C179.053 207.876 176.001 201.659 182.119 199.25Z"/>
	<path fill="#2400EE" transform="scale(2 2)" d="M385.804 106.513C390.912 106.729 389.971 111.674 389.953 115.481C411.743 119.503 415.155 148.242 405.087 142.413C401.676 140.439 404.963 130.656 393.897 124.586C381.743 117.918 365.46 130.314 369.889 143.673C374.9 158.784 387.155 152.956 397.002 158.038C417.31 168.519 413.516 195.635 389.953 202.936C389.884 204.876 389.927 206.817 389.953 208.757C389.333 209.564 388.766 210.191 387.941 210.792C382.259 213.141 382.034 206.718 382.757 202.936C374.986 200.688 367.976 196.862 364.559 189.027C362.66 184.671 361.342 171.511 368.247 176.186C370.477 177.695 370.445 199.518 390.023 195.146C406.547 191.455 408.83 164.184 383.928 162.625C357.493 160.97 352.905 121.825 382.757 115.481C382.64 111.889 381.913 108.15 385.804 106.513Z"/>
	<defs>
		<linearGradient id="gradient_0" gradientUnits="userSpaceOnUse" x1="435.3143" y1="98.92675" x2="332.80664" y2="176.39926">
			<stop offset="0" stop-color="#A918F7"/>
			<stop offset="1" stop-color="#720DFF"/>
		</linearGradient>
	</defs>
	<path fill="url(#gradient_0)" transform="scale(2 2)" d="M382.757 81.2273C419.92 78.8856 454.774 107.326 457.862 144.794C458.162 148.431 459.81 157.832 453.559 157.062C448.493 156.438 449.934 146.623 449.591 143.172C446.6 113.029 420.361 92.336 391.221 88.999C358.671 87.8679 326.39 109.54 322.631 143.256C322.412 145.213 322.103 160.452 315.432 154.235C312.811 151.794 314.394 144.535 314.854 141.505C319.737 109.331 349.966 81.7822 382.757 81.2273Z"/>
	<path fill="#2400EE" transform="scale(2 2)" d="M305.807 375.283C309.902 375.313 311.703 380.164 307.973 382.087C305.113 383.561 301.624 384.388 298.559 385.418L282.181 391.048C287.057 395.025 297.765 399.995 303.784 402.487C348.306 420.919 387.573 416.666 430.439 399.335C434.488 397.698 439.074 399.645 436.435 403.943C433.933 408.017 406.692 415.909 401.374 417.21L399.556 417.621C359.144 426.492 314.551 420.395 279.481 397.987C280.747 402.79 287.872 424.76 286.597 427.742C285.849 429.492 283.404 430.372 281.722 429.485C278.302 427.68 274.063 406.208 272.936 401.899C271.461 396.253 266.826 388.988 273.404 386.292C282.853 382.42 296.128 378.133 305.807 375.283Z"/>
	<path fill="#2400EE" transform="scale(2 2)" d="M140.81 280.609C179.256 278.401 185.871 336.657 145.062 341.246C102.261 341.942 101.65 283.911 140.81 280.609ZM141.617 288.107C112.004 290.766 111.916 332.938 143.492 333.997C165.177 331.546 173.397 305.459 156.345 292.446C152.558 289.556 146.402 287.472 141.617 288.107Z"/>
	<path fill="#2400EE" transform="scale(2 2)" d="M312.177 280.609C351.025 276.733 358.209 337.317 317.811 341.246L317.556 341.276C279.423 345.556 269.712 285.351 312.177 280.609ZM314.145 288.107C283.147 290.183 285.137 334.174 315.941 333.997C347.795 330.033 341.58 287.147 314.145 288.107Z"/>
	<path fill="#2400EE" transform="scale(2 2)" d="M207.11 179.505C213.245 179.277 219.498 179.442 225.618 179.871C254.52 181.895 253.792 184.374 276.433 202.174C280.287 205.204 284.293 208.043 288.174 211.042C304.352 223.541 300.555 221.123 320.311 226.19C338.761 230.921 358.798 240.632 371.37 255.228C382.519 268.172 382.567 287.481 381.176 304.037C379.728 321.262 353.079 326.164 354.854 316.34C355.88 310.667 371.081 317.66 373.583 304.907C374.726 299.085 373.967 278.343 372.546 272.494C367.248 250.683 334.989 237.924 315.905 232.629C297.808 227.606 299.955 229.331 285.157 218.153L260.896 199.559C254.661 194.753 251.371 191.021 243.446 189.495C200.78 181.685 143.816 193.038 109.87 221.621C106.816 224.192 104.396 227.598 100.908 229.629C93.6707 229.537 87.0926 228.412 80.9273 224.644C68.6908 233.461 94.2705 232.632 92.9309 237.704C92.6779 238.662 84.0822 249.938 82.3167 253.139C75.3322 265.8 80.8124 258.755 71.1456 264.483C71.1423 268.683 71.595 292.65 70.9495 294.644C69.9924 297.6 65.0119 297.466 64.0454 294.582C63.2416 292.183 63.1901 269.636 63.5188 264.226C63.836 259.004 67.4445 257.779 71.9914 256.412C75.5388 251.49 77.6999 245.933 81.8373 240.475C68.6453 236.439 66.9372 221.5 78.9393 217.914C81.5244 217.142 91.4898 221.633 97.4441 222.304C134.269 191.078 161.912 184.292 207.11 179.505Z"/>
</svg>
