<?xml version="1.0" encoding="utf-8" ?>
<svg xmlns="http://www.w3.org/2000/svg" xmlns:xlink="http://www.w3.org/1999/xlink" width="1024" height="1024">
	<path fill="#6D6875" transform="scale(2 2)" d="M91.1627 86.3226C96.6609 86.1216 102.223 86.3155 107.727 86.3196L324.167 86.3171C330.051 86.3189 341.683 84.3644 343.829 91.9618C344.597 94.6821 344.067 114.567 344.064 119.127L368.737 119.105C386.927 119.097 386.989 118.232 386.973 135.245L386.95 152.719L407.188 152.69C412.254 152.687 419.745 151.259 423.406 155.635C426.311 159.106 425.11 179.033 425.11 183.768L425.12 402.611C425.179 409.566 426.187 415.038 419.978 419.868C415.289 422.736 400.849 421.257 395.001 421.256L188.34 421.256C171.807 421.254 168.145 425.182 168.186 407.065L168.214 391.506L146.773 391.519C140.288 391.517 136.336 393.034 131.319 388.436C122.893 380.713 115.094 372.068 107.043 363.939L93.6966 350.401C91.369 348.02 88.2817 345.44 86.5671 342.585C86.3726 340.421 86.5395 338.146 86.5457 335.97L86.5649 111.383C86.5651 104.494 83.5201 88.1374 91.1627 86.3226ZM94.2957 94.2448L94.2996 309.087C94.2995 312.76 93.4164 338.977 95.0411 340.573C96.1122 341.626 98.7797 341.32 100.205 341.312C100.351 332.427 100.208 323.514 100.208 314.627L100.205 99.8819L181.849 99.8859C195.296 99.8858 208.783 99.6583 222.226 99.8819C220.401 98.0351 218.528 96.218 216.838 94.2448L94.2957 94.2448ZM269.881 94.2448C271.998 96.0516 273.885 98.0946 276.036 99.8819L336.127 99.8819C336.185 98.0089 336.131 96.1196 336.127 94.2448L269.881 94.2448ZM227.935 94.2448C229.527 96.3442 231.67 98.4116 233.856 99.8819L253.554 99.8967C257.011 99.9075 260.534 100.068 263.982 99.8819L259.297 94.2448L227.935 94.2448ZM386.95 160.595C386.856 162.485 386.914 164.376 386.95 166.267L417.037 166.267C416.894 164.364 416.927 162.498 417.037 160.595C407.012 160.71 396.976 160.574 386.95 160.595ZM344.064 127.729C344.106 129.064 344.118 130.378 344.064 131.713C354.287 131.103 368.951 131.321 379.179 131.713L379.179 126.919C375.551 126.918 345.258 126.556 344.182 127.152L344.064 127.729ZM144.329 361.898C144.407 365.143 138.374 379.047 137.083 383.591C139.171 383.476 141.233 383.363 143.318 383.591C144.505 378.093 147.984 370.829 149.733 365.032C148.363 363.533 146.483 361.764 144.329 361.898ZM175.833 391.506C175.828 398.768 175.681 406.058 175.833 413.317C177.745 413.276 179.66 413.206 181.571 413.317L181.571 391.506C180.412 391.585 179.31 391.57 178.152 391.506L175.833 391.506Z"/>
	<path fill="#FFCDB2" transform="scale(2 2)" d="M108.243 349.259C112.648 349.215 117.24 349.679 121.614 349.259C126.005 354.545 132.146 358.935 135.37 365.032C133.758 368.931 132.246 372.789 131.075 376.848C121.57 368.192 112.395 358.626 103.572 349.259C105.147 349.337 106.669 349.375 108.243 349.259Z"/>
	<path fill="#E5989B" transform="scale(2 2)" d="M276.036 99.8819L336.127 99.8819L336.127 160.595C330.437 153.641 323.579 147.397 317.207 141.057L290.137 113.987C285.451 109.343 280.253 104.953 276.036 99.8819Z"/>
	<path fill="#E5989B" transform="scale(2 2)" d="M263.982 99.8819C269.509 103.981 274.231 109.481 279.069 114.363C294.734 130.175 311.014 145.388 326.44 161.436C329.615 164.739 333.36 168.113 336.127 171.748C336.346 182.468 336.292 193.295 336.127 204.016C333.374 200.478 330.006 197.381 326.874 194.18L242.027 108.482C239.31 105.756 236.119 102.995 233.856 99.8819L253.554 99.8967C257.011 99.9075 260.534 100.068 263.982 99.8819Z"/>
	<path fill="#E5989B" transform="scale(2 2)" d="M386.95 166.267L417.037 166.267L417.033 396.94C417.033 401.262 419.375 413.083 413.934 413.326C405.723 413.692 397.304 413.316 389.072 413.315L181.571 413.317L181.571 391.506C180.412 391.585 179.31 391.57 178.152 391.506L360.919 391.489C378.198 391.461 387.04 396.573 386.97 374.31L386.95 166.267Z"/>
	<path fill="#FFCDB2" transform="scale(2 2)" d="M132.32 349.259C135.469 349.51 138.741 349.286 141.906 349.277L323.841 349.264C347.625 349.274 344.057 347.714 344.06 327.163L344.08 145.31C344.077 139.575 343.755 133.734 344.048 128.017L344.064 127.729C344.106 129.064 344.118 130.378 344.064 131.713C354.287 131.103 368.951 131.321 379.179 131.713L379.182 349.196C379.182 354.795 381.707 383.249 376.221 383.679C370.482 384.13 364.317 383.592 358.54 383.59L162.304 383.587C156.003 383.587 149.609 383.358 143.318 383.591C144.505 378.093 147.984 370.829 149.733 365.032C148.363 363.533 146.483 361.764 144.329 361.898C143.294 361.115 142.314 359.719 141.397 358.756L132.32 349.259Z"/>
	<path fill="#FFB4A2" transform="scale(2 2)" d="M222.226 99.8819C227.991 106.704 234.959 112.765 241.221 119.137L320.737 199.27C325.758 204.334 330.48 210.136 336.127 214.505L336.127 341.312L100.205 341.312C100.351 332.427 100.208 323.514 100.208 314.627L100.205 99.8819L181.849 99.8859C195.296 99.8858 208.783 99.6583 222.226 99.8819Z"/>
	<path fill="#6D6875" transform="scale(2 2)" d="M134.751 196.701C139.744 196.687 144.74 196.644 149.733 196.701C152.544 198.528 153.757 202.564 149.733 204.016C146.97 204.031 128.559 206.353 131.655 199.162C132.259 197.759 133.404 197.23 134.751 196.701Z"/>
	<path fill="#6D6875" transform="scale(2 2)" d="M135.37 231.01C139.119 230.983 146.398 230.345 149.784 231.556C153.877 233.019 152.506 237.693 148.911 238.433C145.558 238.425 135.932 239.114 133.3 237.802C129.153 235.734 131.988 231.637 135.37 231.01Z"/>
	<path fill="#6D6875" transform="scale(2 2)" d="M133.96 265.731C138.432 265.695 143.234 265.296 147.67 265.723C152.358 266.174 153.367 270.651 149.733 273.229C146.865 273.498 137.545 273.638 134.979 273.125C130.693 272.269 130.274 267.555 133.96 265.731Z"/>
	<path fill="#6D6875" transform="scale(2 2)" d="M135.37 127.729C138.916 127.611 145.98 127.204 149.179 128.063C153.851 129.318 152.678 133.978 148.911 135.246C145.901 135.245 127.588 137.701 132.104 129.708C132.848 128.39 133.988 128.093 135.37 127.729Z"/>
	<path fill="#6D6875" transform="scale(2 2)" d="M134.751 162.256C137.85 162.264 147.766 161.707 149.917 162.705C154.213 164.699 152.703 168.681 148.911 169.75C145.154 169.772 137.073 170.388 133.685 169.227C129.11 167.659 131.237 163.362 134.751 162.256Z"/>
	<path fill="#6D6875" transform="scale(2 2)" d="M133.96 300.74C136.542 300.725 162.865 298.472 151.452 308.202C147.033 308.223 139.494 308.629 135.302 308.06C130.728 307.44 130.205 302.816 133.96 300.74Z"/>
	<path fill="#6D6875" transform="scale(2 2)" d="M222.226 300.74C225.461 300.689 239.729 300.237 241.744 301.399C244.859 303.197 243.112 307.455 240.139 308.202C236.676 308.187 223.105 308.888 220.801 307.766C217.181 306.003 218.904 301.535 222.226 300.74Z"/>
	<path fill="#6D6875" transform="scale(2 2)" d="M175.833 300.74C179.149 300.545 192.812 300.368 195.559 300.871C199.809 301.651 199.648 306.3 196.418 308.202C191.796 308.712 181.109 308.91 176.84 308.019C172.886 307.194 173.425 302.825 175.833 300.74Z"/>
	<path fill="#6D6875" transform="scale(2 2)" d="M267.529 300.74C269.718 300.532 285.178 300.492 286.696 301.141C290.799 302.894 288.384 307.418 285.02 308.202C281.49 308.366 267.602 308.647 265.193 307.411C261.591 305.565 263.443 301.27 267.529 300.74Z"/>
</svg>
