<?xml version="1.0" encoding="utf-8" ?>
<svg xmlns="http://www.w3.org/2000/svg" xmlns:xlink="http://www.w3.org/1999/xlink" width="1024" height="1024">
	<path fill="#FFB4A2" transform="scale(2 2)" d="M362.793 147.764C371.008 147.492 378.899 147.905 378.85 157.855C378.836 160.827 378.387 181.23 378.739 182.249L378.739 182.249C371.98 182.504 365.123 182.229 358.351 182.249L358.351 147.764L362.793 147.764Z"/>
	<path fill="#E5989B" transform="scale(2 2)" d="M358.351 147.764L362.793 147.764C362.984 159.246 362.792 170.763 362.793 182.249L372.634 182.183C374.639 182.153 376.759 181.94 378.739 182.249C371.98 182.504 365.123 182.229 358.351 182.249L358.351 147.764Z"/>
	<path fill="#494848" transform="scale(2 2)" d="M159.36 134.251C159.524 117.824 158.14 97.601 159.425 81.6215C159.992 74.5802 174.188 77.252 180.156 77.2518L303.844 77.2591C306.323 78.943 308.466 81.3662 310.588 83.4771L351.826 123.997C355.648 127.826 353.932 139.352 353.933 144.998L353.924 182.249L358.351 182.249C365.123 182.229 371.98 182.504 378.739 182.249L378.739 182.249C381.187 181.956 380.339 158.034 379.481 153.584C376.234 136.757 358.1 145.318 357.414 138.839C356.895 133.942 360.482 134.207 363.617 134.2C384.249 134.157 387.429 148.627 387.424 165.75L387.412 182.249L419.052 182.107C436.055 181.885 448.673 194.704 448.77 211.609L448.757 336.527C448.774 352.424 448.41 369.598 428.247 374.154C421.961 375.574 409.152 374.857 402.125 374.855L353.266 374.862L353.269 408.637C353.279 432.524 357.049 429.294 335.237 429.25L164.237 429.316C156.342 429.257 159.371 415.6 159.37 409.537L159.36 374.862L96.6493 374.886C92.8828 374.899 89.0237 375.104 85.3148 374.346C72.0026 371.624 63.3118 359.47 63.1904 346.18L63.1777 216.81C63.127 202.153 63.8296 187.576 82.0529 182.92C87.4683 181.537 93.9069 182.23 99.4721 182.234L123.96 182.249L123.937 163.477C123.891 135.132 134.052 134.177 159.36 134.251ZM121.413 361.512C121.367 363.479 121.238 365.488 121.413 367.449C122.706 353.71 121.257 334.359 121.413 320.041C120.535 299.505 148.324 304.319 161.211 304.319L361.082 304.316C372.976 304.308 383.603 301.254 389.903 313.697C391.413 319.45 390.659 327.973 390.649 334.049L390.642 361.512L410.055 361.528C434.827 361.562 435.498 360.094 435.443 332.878L435.443 214.833C435.364 195.082 423.927 195.952 408.059 195.985L110.906 195.998C103.739 195.983 96.5385 195.749 89.3745 195.869C73.977 196.127 76.9905 213.147 76.9926 223.257L77.0096 318.418C77.0093 328.333 76.5713 338.421 77.0173 348.316C77.6473 362.293 91.0357 361.532 101.163 361.528L121.413 361.512ZM331.674 311.711L166.877 311.711C166.654 323.828 166.878 335.993 166.878 348.116L166.877 421.213L180.625 421.213L345.82 421.213L345.82 311.711C341.11 311.558 336.386 311.728 331.674 311.711ZM166.877 84.7935L166.877 182.249L172.474 182.249C171.869 172.519 172.473 162.504 172.474 152.735L172.474 90.7625L257.493 90.7589C271.497 90.7594 285.585 91.0927 299.581 90.7625C299.609 88.7711 299.629 86.7847 299.581 84.7935L166.877 84.7935ZM128.863 367.449C139.019 367.451 149.207 367.606 159.36 367.449C159.374 365.47 159.402 363.49 159.36 361.512C159.076 361.112 135.905 361.514 133.679 361.512L133.662 336.265C133.66 333.127 132.606 322.534 134.64 320.139C138.399 315.715 153.587 318.264 159.36 317.553C159.326 315.604 159.285 313.659 159.36 311.711C153.187 311.695 139.389 311.026 134.142 312.453C126.263 314.596 128.854 328.53 128.853 334.446L128.863 367.449ZM353.266 311.711L353.266 367.449L382.994 367.449L382.994 361.512C380.318 361.8 377.434 361.546 374.734 361.539L358.351 361.512C358.072 356.754 358.338 351.826 358.34 347.053L358.351 317.553L382.994 317.553C380.937 309.601 371.935 311.689 365.73 311.699C361.618 311.706 357.358 311.429 353.266 311.711ZM131.452 182.249L137.054 182.249L137.025 162.791C137.064 146.379 145.734 147.697 159.36 147.764C159.348 145.809 159.312 143.85 159.36 141.895C137.49 141.789 131.404 139.52 131.428 165.778L131.452 182.249ZM306.993 90.7625C306.705 101.559 306.998 112.438 306.993 123.244L312.652 123.244C312.33 114.386 312.538 105.301 312.652 96.4296C311.03 94.2944 309.203 92.3057 306.993 90.7625Z"/>
	<path fill="white" transform="scale(2 2)" d="M303.844 130.286L346.606 130.286L346.606 135.796L320.002 135.807C315.647 135.833 311.329 136.375 306.993 135.796C304.819 134.476 304.373 132.615 303.844 130.286Z"/>
	<path fill="#FFB4A2" transform="scale(2 2)" d="M312.652 96.4296C322.601 104.422 330.901 114.676 340.402 123.244L312.652 123.244C312.33 114.386 312.538 105.301 312.652 96.4296Z"/>
	<path fill="#E5989B" transform="scale(2 2)" d="M159.36 147.764C159.648 159.231 159.358 170.774 159.36 182.249C151.933 182.122 144.483 182.217 137.054 182.249L137.025 162.791C137.064 146.379 145.734 147.697 159.36 147.764Z"/>
	<path fill="#FFB4A2" transform="scale(2 2)" d="M382.994 317.553L382.994 361.512C380.318 361.8 377.434 361.546 374.734 361.539L358.351 361.512C358.072 356.754 358.338 351.826 358.34 347.053L358.351 317.553L382.994 317.553Z"/>
	<path fill="#E5989B" transform="scale(2 2)" d="M159.36 317.553C159.355 332.196 159.133 346.873 159.36 361.512C159.076 361.112 135.905 361.514 133.679 361.512L133.662 336.265C133.66 333.127 132.606 322.534 134.64 320.139C138.399 315.715 153.587 318.264 159.36 317.553Z"/>
	<path fill="white" transform="scale(2 2)" d="M121.413 367.449L121.319 367.721C120.005 368.198 86.7722 367.096 85.9277 366.883C76.831 364.588 70.8355 356.557 70.7511 347.227L70.734 219.434C70.6986 204.542 70.3496 189.731 89.996 189.667L409.019 189.673C426.615 189.675 441.205 191.097 441.247 212.818L441.237 336.178C441.239 366.101 435.848 367.461 409.351 367.462L390.642 367.449C390.525 365.48 390.615 363.484 390.642 361.512L410.055 361.528C434.827 361.562 435.498 360.094 435.443 332.878L435.443 214.833C435.364 195.082 423.927 195.952 408.059 195.985L110.906 195.998C103.739 195.983 96.5385 195.749 89.3745 195.869C73.977 196.127 76.9905 213.147 76.9926 223.257L77.0096 318.418C77.0093 328.333 76.5713 338.421 77.0173 348.316C77.6473 362.293 91.0357 361.532 101.163 361.528L121.413 361.512C121.367 363.479 121.238 365.488 121.413 367.449Z"/>
	<path fill="#FFCDB2" transform="scale(2 2)" d="M172.474 90.7625L257.493 90.7589C271.497 90.7594 285.585 91.0927 299.581 90.7625L299.564 115.717C299.561 120.542 297.269 130.247 303.844 130.286C304.373 132.615 304.819 134.476 306.993 135.796C311.329 136.375 315.647 135.833 320.002 135.807L346.606 135.796L346.606 182.249L172.474 182.249C171.869 172.519 172.473 162.504 172.474 152.735L172.474 90.7625Z"/>
	<path fill="#FFCDB2" transform="scale(2 2)" d="M172.474 317.553L340.402 317.553L340.405 368.943C340.402 377.876 340.239 386.831 340.402 395.761L340.402 415.5L208.575 415.497C205.105 415.496 173.972 415.868 172.651 415.352L172.474 414.526C172.057 406.26 172.608 397.878 172.564 389.596L172.474 317.553Z"/>
	<path fill="white" transform="scale(2 2)" d="M182.531 361.512C181.066 360.715 183.088 357.789 183.799 357.056C186.359 354.419 200.264 355.502 204.103 355.497L327.709 355.501C329.224 356.691 330.792 357.657 330.678 359.789C327.001 357.163 319.572 358.294 315.216 358.293L201.714 358.3C196.917 358.302 185.089 356.239 182.531 361.512Z"/>
	<path fill="white" transform="scale(2 2)" d="M182.531 330.252C181.605 329.379 181.874 327.842 182.214 326.735C184.015 320.87 207.601 323.357 213.315 323.363L300.297 323.366C304.002 323.367 333.46 320.874 330.678 327.775C327.616 324.96 313.423 326.357 308.65 326.359L216.534 326.367C207.054 326.363 197.403 325.992 187.944 326.431C184.739 326.58 183.538 327.212 182.531 330.252Z"/>
	<path fill="white" transform="scale(2 2)" d="M329.715 366.297C330.448 367.623 329.896 370.242 329.715 371.732C322.65 371.952 315.52 371.732 308.448 371.732L218.502 371.734C214.619 371.734 189.598 372.613 187.296 370.89C186.142 370.027 185.648 367.633 185.257 366.297L320.088 366.309C322.711 366.321 327.444 366.974 329.715 366.297Z"/>
	<path fill="white" transform="scale(2 2)" d="M329.715 334.23C334.016 335.568 332.602 339.609 328.067 339.69C319.704 339.839 311.288 339.629 302.92 339.628L210.775 339.637C207.121 339.638 189.247 340.727 186.864 338.401C185.828 337.389 185.595 335.584 185.257 334.23L214.149 334.245C218.234 334.248 223.117 334.685 227.086 334.23C229.783 334.015 232.67 334.214 235.386 334.219L306.849 334.224C312.623 334.223 324.523 335.002 329.715 334.23Z"/>
	<path fill="#494848" transform="scale(2 2)" d="M182.531 330.252C183.538 327.212 184.739 326.58 187.944 326.431C197.403 325.992 207.054 326.363 216.534 326.367L308.65 326.359C313.423 326.357 327.616 324.96 330.678 327.775C331.782 330.418 331.374 332.017 329.715 334.23C324.523 335.002 312.623 334.223 306.849 334.224L235.386 334.219C232.67 334.214 229.783 334.015 227.086 334.23C223.426 333.792 218.252 334.211 214.393 334.214L185.257 334.23C183.649 332.922 182.993 332.308 182.531 330.252Z"/>
	<path fill="#494848" transform="scale(2 2)" d="M182.531 361.512C185.089 356.239 196.917 358.302 201.714 358.3L315.216 358.293C319.572 358.294 327.001 357.163 330.678 359.789C331.437 362.648 330.556 363.697 329.715 366.297C327.444 366.974 322.711 366.321 320.088 366.309L185.257 366.297C183.179 365.546 182.742 363.51 182.531 361.512Z"/>
	<path fill="#FFB4A2" transform="scale(2 2)" d="M183.364 388.585C193.899 386.09 217.423 387.415 228.683 387.413L327.709 387.412C329.603 388.617 331.191 389.714 330.678 392.168L331.674 394.261C334.554 395.544 337.314 395.551 340.402 395.761L340.402 415.5L208.575 415.497C205.105 415.496 173.972 415.868 172.651 415.352L172.474 414.526C172.837 411.975 172.5 409.011 172.493 406.405L172.474 388.585C176.062 388.614 179.806 388.213 183.364 388.585Z"/>
	<path fill="#494848" transform="scale(2 2)" d="M183.364 388.585C193.899 386.09 217.423 387.415 228.683 387.413L327.709 387.412C329.603 388.617 331.191 389.714 330.678 392.168L331.674 394.261C329.251 400.766 318.417 398.229 312.039 398.222L185.257 398.211C183.681 397.011 183.17 396.08 182.531 394.261C181.153 392.711 182.562 390.106 183.364 388.585Z"/>
	<path fill="white" transform="scale(2 2)" d="M183.364 388.585C193.899 386.09 217.423 387.415 228.683 387.413L327.709 387.412C329.603 388.617 331.191 389.714 330.678 392.168C327.252 388.521 304.449 390.274 298.691 390.273L207.208 390.258C200.605 390.258 184.664 387.485 182.531 394.261C181.153 392.711 182.562 390.106 183.364 388.585Z"/>
	<path fill="#FFB4A2" transform="scale(2 2)" d="M121.413 361.512L101.163 361.528C91.0357 361.532 77.6473 362.293 77.0173 348.316C76.5713 338.421 77.0093 328.333 77.0096 318.418L76.9926 223.257C76.9905 213.147 73.977 196.127 89.3745 195.869C96.5385 195.749 103.739 195.983 110.906 195.998L408.059 195.985C423.927 195.952 435.364 195.082 435.443 214.833L435.443 332.878C435.498 360.094 434.827 361.562 410.055 361.528L390.642 361.512L390.649 334.049C390.659 327.973 391.413 319.45 389.903 313.697C383.603 301.254 372.976 304.308 361.082 304.316L161.211 304.319C148.324 304.319 120.535 299.505 121.413 320.041C121.257 334.359 122.706 353.71 121.413 367.449C121.238 365.488 121.367 363.479 121.413 361.512ZM101.763 217.322C102.68 219.988 103.741 221.877 105.912 223.74C108.357 223.333 111.283 223.684 113.777 223.706L410.51 223.74L410.51 216.412C406.712 218.714 380.623 217.323 374.525 217.323L101.763 217.322ZM116.38 250.806C136.078 250.763 135.121 255.117 135.019 235.951C135.02 234.179 135.479 230.089 133.877 228.969C132.555 228.044 103.778 226.862 101.006 229.43C100.024 231.946 100.032 246.953 100.973 249.409C103.438 252.083 112.905 250.621 116.38 250.806Z"/>
	<path fill="white" transform="scale(2 2)" d="M171.557 243.191C179.878 257.763 153.145 263.368 151.983 252.333L152.295 252.446C161.155 255.605 168.444 251.941 171.557 243.191Z"/>
	<path fill="white" transform="scale(2 2)" d="M135.019 232.172C136.514 232.587 138.275 232.842 139.102 234.318C140.016 235.95 139.619 251.774 138.898 253.883C137.052 259.275 110.361 257.238 107.823 256.249C105.913 255.503 105.301 252.58 104.771 250.806C108.139 250.821 113.211 251.316 116.38 250.806C136.078 250.763 135.121 255.117 135.019 235.951L135.019 232.172Z"/>
	<path fill="#494848" transform="scale(2 2)" d="M151.983 252.333C144.078 246.696 140.728 237.075 148.956 229.855C158.802 221.216 173.522 228.223 171.557 243.191C168.444 251.941 161.155 255.605 152.295 252.446L151.983 252.333Z"/>
	<path fill="white" transform="scale(2 2)" d="M157.437 233.77C165.195 233.38 167.169 244.139 159.36 246.012C150.449 245.809 149.612 236.411 157.437 233.77Z"/>
	<path fill="#494848" transform="scale(2 2)" d="M116.38 250.806C112.905 250.621 103.438 252.083 100.973 249.409C100.032 246.953 100.024 231.946 101.006 229.43C103.778 226.862 132.555 228.044 133.877 228.969C135.479 230.089 135.02 234.179 135.019 235.951C135.121 255.117 136.078 250.763 116.38 250.806ZM107.867 235.951L107.867 243.191L127.279 243.191L127.279 235.951L107.867 235.951Z"/>
	<path fill="white" transform="scale(2 2)" d="M121.413 320.041L121.147 320.334L120.731 320.233C113.009 311.218 121.824 298.696 134.264 298.317C146.749 297.937 159.347 298.281 171.842 298.285L325.863 298.284C333.834 298.284 372.313 296.977 378.308 299.377C381.884 300.808 391.689 308.958 389.903 313.697C383.603 301.254 372.976 304.308 361.082 304.316L161.211 304.319C148.324 304.319 120.535 299.505 121.413 320.041Z"/>
	<path fill="#494848" transform="scale(2 2)" d="M101.763 217.322C99.0369 216.001 98.1002 212.334 101.108 210.577C104.047 208.859 127.598 209.952 132.38 209.953L392.859 209.987C399.529 209.964 414.546 206.431 410.51 216.412C406.712 218.714 380.623 217.323 374.525 217.323L101.763 217.322Z"/>
</svg>
