<?xml version="1.0" encoding="utf-8" ?>
<svg xmlns="http://www.w3.org/2000/svg" xmlns:xlink="http://www.w3.org/1999/xlink" width="1024" height="1024">
	<path fill="#EC6744" transform="scale(2 2)" d="M127.397 182.244C132.989 182.109 138.616 182.232 144.213 182.244L144.201 285.909C144.199 293.595 143.9 301.307 145.494 308.877C150.459 332.444 168.008 351.08 191.708 356.29C199.833 358.076 208.222 357.553 216.488 357.547L342.013 357.551C342.391 377.947 342.877 394.061 329.926 411.486C320.183 424.594 305.612 433.016 289.511 435.449C280.661 437.005 271.157 436.048 262.204 436.046L157.51 436.052C147.335 436.052 134.176 436.803 124.341 435.193C99.8563 431.187 78.333 410.267 75.3643 385.325C74.3726 376.993 75.0052 366.367 75.0069 357.754L75.0022 257.736C74.9909 248.921 74.2222 237.819 75.6804 229.259C80.2198 202.613 101.331 185.22 127.397 182.244Z"/>
	<path fill="#EC9F44" transform="scale(2 2)" d="M434.199 171.249C437.705 183.585 437.494 189.593 437.49 202.367L437.492 256.824C437.493 265.269 437.868 274.013 436.253 282.342C431.523 306.739 410.549 326.916 385.882 330.394C379.242 331.33 370.054 330.756 363.124 330.755L241.999 330.757C235.059 330.754 227.88 330.879 221.047 329.527C195.777 324.524 175.394 304.293 171.893 278.625C170.63 269.37 171.126 259.728 171.124 250.411L171.124 155.14C171.125 145.526 170.293 131.101 172.353 122.061C177.807 98.1325 198.708 79.626 222.75 76.1033C229.195 75.159 235.825 75.4218 242.323 75.4308L301.315 75.4478C311.057 75.4464 321.738 74.6383 331.25 76.9322C351.046 81.1707 361.111 90.6878 374.828 104.427L411.453 140.965C420.899 150.284 429.782 158.446 434.199 171.249Z"/>
	<path fill="#EC6744" transform="scale(2 2)" d="M331.25 76.9322C351.046 81.1707 361.111 90.6878 374.828 104.427L411.453 140.965C420.899 150.284 429.782 158.446 434.199 171.249L390.775 171.253C382.821 171.26 370.192 172.026 362.855 170.332C348.571 167.034 336.586 155.39 332.777 141.269C329.202 128.016 331.625 92.4136 331.25 76.9322Z"/>
</svg>
