<?xml version="1.0" encoding="utf-8" ?>
<svg xmlns="http://www.w3.org/2000/svg" xmlns:xlink="http://www.w3.org/1999/xlink" width="1024" height="1024">
	<path fill="white" d="M0 0L1024 0L1024 1024L0 1024L0 0Z"/>
	<path fill="#572E4C" d="M303.5 36.9509C304.867 36.987 306.2 37.2197 307.511 37.602C325.759 42.9201 343.69 49.2186 361.794 54.9804L451.359 83.1448L492.464 96.0081C498.287 97.819 505.285 99.2237 510.713 101.847C513.035 102.97 515.031 105.433 516.183 107.68C517.774 110.786 518.274 114.308 517.079 117.63C516.188 120.111 514.522 122.436 512.3 123.886C507.905 126.754 501.719 128.53 496.83 130.64Q484.284 136.183 471.834 141.939C473.181 145.335 475.238 148.567 476.988 151.778C502.175 198.01 502.237 252.889 487.615 302.434C496.247 303.319 504.204 305.409 510.632 311.628C517.484 318.257 520.218 326.594 520.241 335.973C520.275 350.119 514.449 365.032 504.362 375.05C494.239 385.103 482.932 385.535 469.523 385.484C468.466 390.92 467.696 396.452 466.798 401.92L704.764 402.066L771.079 402.025C782.815 402.012 795.083 401.259 806.747 402.371C807.317 403.15 807.462 403.393 807.349 404.395C807.282 404.991 800.588 422.542 799.748 425.119C783.512 474.954 781.84 538.143 796.997 588.376C812.366 588.683 827.873 588.763 843.243 588.805C851.737 588.828 861.113 587.462 869.442 589.48C877.441 591.419 885.002 596.42 890.78 602.167C901.789 613.118 908.361 626.057 916.726 638.855C930.304 659.628 943.73 680.289 956.516 701.568L956.483 701.385C961.579 702.953 966.17 704.586 968.768 709.664C972.099 716.174 973.244 728.59 970.914 735.507C968.339 743.149 961.289 746.236 954.629 749.582Q948.353 804.353 940.996 858.989C939.109 873.193 934.012 887.001 922.208 896.029C932.061 908.479 940.082 922.16 948.983 935.262C956.979 947.032 966.279 958.831 972.761 971.535C973.88 973.728 975.788 977.066 974.999 979.484C973.438 980.392 971.876 980.575 970.088 980.62C953.588 981.034 936.952 980.676 920.437 980.633L850.27 980.762L577.826 980.634L300.414 980.513L197.052 980.566C182.441 980.547 167.731 980.897 153.134 980.565C151.307 980.523 149.602 980.423 147.97 979.548C147.934 979.417 147.877 979.291 147.861 979.156C147.364 975.118 173.882 938.135 178.26 930.402C156.837 925.682 135.141 921.761 113.625 917.455C104.305 915.589 95.0626 913.369 85.7555 911.447C75.1793 909.263 64.2336 907.688 53.7746 905.074C52.4146 904.734 50.8189 904.45 49.8689 903.357C49.1979 901.672 48.8464 900.105 48.697 898.297C48.0209 890.118 48.4593 881.675 48.1907 873.454C47.9168 865.071 45.4031 842.854 47.1088 836.054C53.7688 831.425 82.9095 823.589 92.8838 820.388Q117.361 812.523 141.629 804.036Q122.309 782.769 103.792 760.799C96.4825 752.131 88.7671 743.572 82.5179 734.086C80.1176 730.442 78.0439 726.834 77.0093 722.548C75.6947 717.102 75.9365 710.999 77.8571 705.731C80.8012 697.656 87.0302 690.032 91.7608 682.907C102.403 666.878 113.735 651.127 123.833 634.765C122.086 632.638 118.538 630.53 117.859 627.759C117.184 625.002 118.814 622.72 120.231 620.498C133.32 599.962 169.21 547.567 188.688 535.049C195.999 530.35 204.052 528.555 212.403 526.705L212.837 525.266C217.988 520.344 250.079 511.396 258.798 508.042C267.348 504.752 271.864 500.857 281.474 498.706C281.868 493.917 282.096 489.21 282.082 484.403C261.203 477.988 231.62 465.238 213.729 452.406C183.817 430.949 179.116 417.878 173.362 382.316C169.987 383.818 166.652 385.181 162.947 385.568C156.131 386.279 149.953 383.531 144.774 379.292C132.734 369.44 125.829 354.184 124.439 338.849C123.534 328.869 125.138 319.075 131.904 311.314C136.955 305.521 142.557 303.393 149.993 302.995C148.707 288.09 145.42 273.314 144.012 258.389C141.21 228.709 146.992 192.367 159.324 165.232L157.295 164.588C148.49 161.771 106.772 148.84 103.927 142.357C102.624 139.389 102.354 135.034 103.561 132C104.777 128.945 107.428 127.087 110.102 125.376C117.554 120.606 126.05 116.946 134.002 113.065Q158.424 101.116 183.262 90.0557Q243.14 62.9572 303.5 36.9509Z"/>
	<path fill="#E5989B" d="M194.966 317.024C195.523 317.439 195.454 317.752 195.627 318.403C195.437 318.653 195.272 318.925 195.056 319.153C192.689 321.644 188.007 321.966 184.782 322.369L184.235 320.98C185.555 318.749 191.8 318.25 194.405 317.247L194.966 317.024Z"/>
	<path fill="#6D6875" d="M743.79 610.05C744.154 609.528 744.582 609.134 745.034 608.689C750.265 606.832 757.975 608.342 763.524 608.476L761.354 609.134C760.975 610.392 761.029 609.766 761.154 611.008C758.715 610.662 756.412 610.204 753.956 610.633C750.635 610.766 747.117 610.28 743.79 610.05Z"/>
	<path fill="#6D6875" d="M235.85 799.59C236.087 800.889 236.753 802.814 236.168 803.963C233.641 805.675 232.079 806.21 229.017 806.04C227.944 805.363 227.612 805.172 227.388 803.807C227.311 803.341 227.344 802.519 227.354 802.027C230.233 801.438 233.187 800.857 235.85 799.59Z"/>
	<path fill="#E5989B" d="M181.821 305.994L182.609 306.164C183.006 309.309 182.243 313.115 181.933 316.297C179.827 316.579 177.801 317.089 175.74 317.594L175.522 317.668L174.909 317.205C174.536 314.531 174.997 311.531 175.164 308.833L181.821 305.994Z"/>
	<path fill="white" d="M204.059 771.992C205.955 773.536 206.765 781.937 207.256 784.612L201.569 781.357L194.132 776.607L204.059 771.992Z"/>
	<path fill="#E5989B" d="M426.448 286.146C432.322 288.186 439.806 292.418 444.007 297.07C446.138 299.429 447.025 301.043 446.825 304.251C445.074 303.71 443.663 300.777 442.288 299.435C438.281 295.521 433.491 293.777 428.148 292.677L426.448 286.146Z"/>
	<path fill="#E5989B" d="M427.167 295.427C433.919 297.257 440.186 300.904 443.835 307.107C444.117 307.586 444.201 307.795 444.458 308.329C442.319 308.055 424.708 302.16 422.884 301.016C425.605 299.704 426.123 298.133 427.167 295.427Z"/>
	<path fill="white" d="M266.674 508.382C271.016 505.904 276.703 504.601 281.578 503.56L282.195 509.509L282.465 511.556C277.088 511.796 271.95 513.25 266.79 514.681C266.457 512.552 266.578 510.521 266.674 508.382Z"/>
	<path fill="#FFCDB2" d="M266.79 514.681C266.457 512.552 266.578 510.521 266.674 508.382L267.096 511.54C270.525 511.916 276.522 509.06 282.195 509.509L282.465 511.556C277.088 511.796 271.95 513.25 266.79 514.681Z"/>
	<path fill="white" d="M206.677 690.711L207.15 690.836C208.907 692.8 209.896 695.183 211.029 697.538C205.884 698.98 200.826 700.762 195.756 702.448L194.815 702.727C193.406 701.345 192.988 698 192.483 696.085C197.077 694.004 202.017 692.678 206.677 690.711Z"/>
	<path fill="white" d="M52.3475 842.209C52.1343 841.021 51.963 840.201 52.2195 838.998C55.7329 835.965 67.4406 833.698 72.4807 832.188C72.962 834.416 72.4821 836.485 72.129 838.7C69.2257 839.316 66.1361 839.828 64.2744 842.421C63.654 843.285 63.259 844.317 62.8661 845.296C59.6099 843.711 55.858 843.05 52.3475 842.209Z"/>
	<path fill="#B5838D" d="M377.583 291.912C381.835 291.962 380.079 291.222 383.056 290.37C385.273 289.735 411.526 290.219 412.577 290.884C413.311 292.279 413.342 293.321 413.377 294.849C410.427 296.801 382.465 295.547 377.901 294.795C377.812 294.78 377.728 294.744 377.641 294.718L377.583 291.912Z"/>
	<path fill="#E5989B" d="M205.906 294.051C204.972 298.622 198.821 308.567 196.346 313.105C192.671 314.186 188.936 315.013 185.204 315.87C185.015 311.918 185.731 308.221 186.752 304.432C193.453 301.424 199.716 297.979 205.906 294.051Z"/>
	<path fill="#FFCDB2" d="M477.488 611.208C481.417 610.779 485.44 610.967 489.39 611.002L488.278 622.448L482.132 622.481L469.316 622.604C470.495 619.64 471.321 614.97 473.356 612.555C474.504 611.192 475.83 611.41 477.488 611.208Z"/>
	<path fill="white" d="M308.673 725.02C309.353 720.058 309.886 715.06 311.583 710.323C314.694 716.425 317.785 717.622 323.994 720.147C323.703 724.254 323.301 728.361 323.726 732.471C320.193 731.845 316.748 731.219 313.506 729.612C311.387 728.562 309.466 727.27 308.673 725.02Z"/>
	<path fill="#E5989B" d="M319.405 549.887Q327.083 555.924 334.915 561.759C329.603 562.703 324.107 562.956 318.72 563.072C313.487 563.148 308.363 562.899 303.181 562.154C308.955 558.542 314.21 554.27 319.405 549.887Z"/>
	<path fill="#FFCDB2" d="M743.79 610.05C747.117 610.28 750.635 610.766 753.956 610.633C757.621 614.051 758.365 617.797 759.41 622.51L739.092 622.508C738.9 618.41 738.382 614.373 737.817 610.314Q740.804 610.203 743.79 610.05Z"/>
	<path fill="#6D6875" d="M422.487 166.748L427.988 170.027C418.038 177.051 406.067 181.228 396.214 188.192C394.819 186.408 392.699 184.863 391.001 183.342C399.084 177.4 413.06 170.989 422.487 166.748Z"/>
	<path fill="#6D6875" d="M425.615 164.569C432.104 160.461 460.005 146.159 467.096 144.243C468.378 144.915 468.91 145.839 469.679 147.006C456.803 154.855 443.997 161.691 430.401 168.167C428.737 167.304 427.111 165.728 425.615 164.569Z"/>
	<path fill="#B5838D" d="M451.046 302.534C458.29 304.567 465.149 307.397 472.605 308.745C471.81 313.058 471.525 317.521 471.071 321.884L470.738 322.228C466.945 322.239 454.7 314.209 450.986 312.078L451.046 302.534Z"/>
	<path fill="white" d="M130.258 324.569C131.69 319.146 134.884 313.946 139.614 310.82C143.659 308.146 148.528 306.946 153.295 308.121C159.4 309.626 162.241 313.612 165.187 318.73C164.538 319.421 163.558 320.548 162.696 320.928C159.6 322.291 150.551 314.812 145.383 315.291C142.748 315.535 141.331 316.712 139.737 318.716C137.15 321.266 133.325 322.611 130.258 324.569Z"/>
	<path fill="#6D6875" d="M354.368 204.588C365.078 198.24 375.772 192.025 386.244 185.281C388.633 186.931 390.999 188.629 393.484 190.133C382.446 194.876 371.794 202.206 361.369 208.233C358.873 207.217 356.671 205.972 354.368 204.588Z"/>
	<path fill="white" d="M216.149 527.478C222.71 524.218 254.846 513.024 261.668 512.255C262.393 513.68 262.034 516.052 262.004 517.637C247.596 523.715 231.497 526.416 216.354 533.012C216.145 531.184 216.184 529.318 216.149 527.478Z"/>
	<path fill="#B5838D" d="M196.053 705.917C196.995 706.702 197.371 707.67 197.758 708.807C200.52 716.916 201.996 726.018 203.891 734.386C208.183 753.326 212.058 772.392 216.889 791.202L216.518 791.74L211.997 787.844C210.689 776.744 194.225 710.86 195.262 707.259C195.406 706.76 195.789 706.364 196.053 705.917Z"/>
	<path fill="#B5838D" d="M350.31 206.768C353.176 207.851 355.893 208.979 358.608 210.404C350.51 215.75 342.971 219.808 333.474 222.086C329.98 222.925 326.325 223.341 322.886 224.338C318.594 222.653 314.675 219.703 310.906 217.082C330.362 220.517 333.328 214.25 349.663 207.05L350.31 206.768Z"/>
	<path fill="#FFB4A2" d="M136.741 333.498C138.12 330.384 139.744 325.425 143.424 324.358C145.732 323.688 147.78 324.372 149.751 325.629C156.725 330.074 161.822 338.866 165.045 346.258C162.301 346.366 160.082 346.696 157.511 347.656C157.383 347.455 157.258 347.252 157.127 347.054C152.763 340.47 144.373 335.064 136.741 333.498Z"/>
	<path fill="#FFB4A2" d="M245.697 816.315C255.067 816.766 270.02 820.735 279.748 822.523C298.093 825.896 316.59 828.545 334.895 832.137C335.871 833.137 336.007 834.728 336.312 836.049C324.456 833.013 311.906 831.416 299.83 829.378C288.42 827.453 277.125 825.102 265.754 822.994C260.267 821.977 252.583 821.739 247.535 819.463C246.398 818.951 246.127 817.385 245.697 816.315Z"/>
	<path fill="#FFB4A2" d="M305.673 325.504C309.338 324.56 312.951 324.35 316.724 324.259C321.97 324.134 334.164 323.257 338.208 327.093C338.966 329.304 338.694 331.73 338.645 334.04C327.683 334.09 316.09 333.575 305.307 335.743C304.865 332.404 305.358 328.836 305.673 325.504Z"/>
	<path fill="#B5838D" d="M252.937 207.545C253.596 205.792 254.3 203.11 255.468 201.673C256.581 200.304 257.414 200.619 258.967 200.653C261.882 203.336 273.47 205.556 277.764 207.471C284.894 210.651 291.851 216.796 298.062 221.548C288.627 221.583 280.477 215.817 270.997 215.816C270.038 215.12 269.03 214.545 268.003 213.959C266.475 213.977 266.363 214.104 265.101 214.995C260.974 212.65 256.726 210.417 252.937 207.545Z"/>
	<path fill="#FFCDB2" d="M450.469 317.386Q460.146 322.795 470.279 327.294Q469.763 331.947 469.185 336.593C465.334 338.586 455.074 344.503 450.603 342.856C450.391 342.778 450.194 342.664 449.989 342.568C450 334.295 449.474 325.588 450.469 317.386Z"/>
	<path fill="#B5838D" d="M341.914 564.535C347.068 568.971 353.618 571.39 358.809 575.842C358.305 576.385 357.786 576.84 357.224 577.321C351.983 576.573 346.872 573.098 341.562 571.909C334.412 570.308 326.408 571.982 319.118 571.97C313.545 571.961 307.984 571.139 302.409 571.752C295.921 572.465 288.065 578.403 282.18 577.835C280.9 577.123 280.582 575.828 280.053 574.544C281.145 573.021 297.522 565.758 300.201 565.103C316.548 569.386 325.679 567.747 341.914 564.535Z"/>
	<path fill="#FFCDB2" d="M253.99 878.185C256.003 878.325 258.011 878.501 260.03 878.48C261.853 890.548 260.274 910.085 260.014 922.723C259.909 927.88 260.535 933.22 260.132 938.329C260.022 939.723 259.676 940.786 259.025 942.012C257.894 942.823 257.851 942.835 256.459 942.803C255.014 942.095 254.347 941.5 253.85 939.924C252.6 935.968 253.491 930.689 253.595 926.541C253.764 919.806 254.669 885.708 253.358 880.992L254.102 880.966C254.62 879.667 254.334 879.487 253.99 878.185Z"/>
	<path fill="white" d="M493.899 622.641C492.78 618.621 500.313 539.117 501.749 531.031C502.075 529.198 502.801 527.537 503.713 525.924C507.225 519.71 512.828 515.879 519.735 514.301C521.098 513.989 521.645 514.075 522.839 514.758C523.901 516.644 523.545 518.976 523.506 521.081C516.572 522.633 510.184 525.042 506.107 531.281C504.832 533.233 504.31 535.342 503.898 537.61C502.7 544.206 502.64 551.291 502.062 557.994C500.801 572.635 499.628 587.321 498.177 601.942C497.458 607.916 498.115 616.387 495.63 621.799C495.057 622.086 494.489 622.393 493.899 622.641Z"/>
	<path fill="#E5989B" d="M440.338 788.702C446.493 788.655 453.91 789.342 459.91 788.315Q460.058 798.582 460.065 808.851C453.745 810.995 447.245 812.755 440.807 814.509C440.622 805.919 440.26 797.292 440.338 788.702Z"/>
	<path fill="#FFCDB2" d="M425.94 526.601C429.07 527.569 431.805 529.182 434.543 530.942C433.214 538.408 432.911 546.078 431.76 553.592C430.013 565.004 427.108 576.168 424.123 587.307L423.903 587.675C422.173 588.482 419.421 588.081 417.515 588.052L425.94 526.601Z"/>
	<path fill="white" d="M341.205 841.141C340.512 834.467 338.7 827.701 337.449 821.087Q332.96 797.083 327.841 773.205C326.304 765.795 324.229 758.079 323.495 750.572C324.724 749.947 325.989 750.398 327.338 750.565C330.628 763.493 334.12 776.469 336.934 789.509Q342.327 814.107 348.767 838.452L341.205 841.141Z"/>
	<path fill="#FFCDB2" d="M355.978 502.585C361.974 503.936 367.968 505.358 373.814 507.275L374.355 512.523C375.402 535.084 370.304 551.562 358.537 570.644Q353.912 567.796 349.359 564.835C362.511 555.352 365.956 537.99 369.766 523.201C370.655 519.749 371.093 515.684 373.526 512.972C367.348 513.013 360.808 512.886 354.845 511.188C355.416 508.298 355.803 505.526 355.978 502.585Z"/>
	<path fill="white" d="M231.318 763.413C255.714 756.442 279.596 747.592 303.756 739.839C304.577 741.788 305.551 743.588 306.602 745.421C297.532 748.997 288.262 751.742 279.021 754.816C263.8 759.878 248.022 765.414 233.401 771.991L231.318 763.413Z"/>
	<path fill="#6D6875" d="M477.325 792.25C488.066 791.88 498.867 792.053 509.619 792.021C517.052 791.999 524.776 791.524 532.159 792.323C524.294 794.126 516.476 796.224 508.648 798.189C493.95 801.494 479.348 805.101 464.597 808.182L464.575 792.472L477.325 792.25Z"/>
	<path fill="#FFB4A2" d="M52.3475 842.209C55.858 843.05 59.6099 843.711 62.8661 845.296C61.7517 851.883 63.1292 859.978 63.3114 866.733C63.6286 878.492 63.5313 890.284 63.5459 902.048C60.4114 901.345 57.2365 900.848 54.0694 900.316C53.1282 880.923 52.4896 861.633 52.3475 842.209Z"/>
	<path fill="#E5989B" d="M525.065 593.377C525.989 602.97 525.864 612.779 526.108 622.415C517.684 622.366 501.52 621.325 493.899 622.641C494.489 622.393 495.057 622.086 495.63 621.799C498.115 616.387 497.458 607.916 498.177 601.942C500.61 600.416 520.178 601.424 525.065 601.342C524.904 598.647 524.891 596.073 525.065 593.377Z"/>
	<path fill="#FFCDB2" d="M163.937 211.686C164.641 214.135 162.077 220.757 161.451 223.663C159.17 234.26 157.718 243.649 158.095 254.579C155.818 255.514 153.681 256.238 151.883 257.983L151.696 258.845C153.749 259.486 156.369 257.95 158.229 257.149C157.301 267.011 156.501 276.618 156.706 286.528L152.061 287.758C148.515 262.58 147.169 242.718 149.807 217.436C154.627 215.693 159.306 213.9 163.937 211.686Z"/>
	<path fill="#E5989B" d="M377.641 294.718C375.425 294.678 373.829 293.87 371.75 293.571C369.758 293.285 365.764 294.725 363.836 295.511C341.971 304.411 345.755 325.51 345.493 344.422C345.447 347.802 345.674 351.772 344.349 354.925L343.666 354.924C342.341 352.553 342.256 349.612 342.105 346.938C341.826 342.012 341.995 337.003 342.027 332.069C342.118 317.926 343.049 304.861 353.088 293.849C358.941 287.43 368.485 281.852 377.289 281.544C382.264 281.37 387.363 282.042 392.351 282.141C400.497 282.302 409.297 281.496 417.337 282.754C419.022 283.018 420.936 283.38 422.217 284.574C420.862 287.127 425.112 289.505 424.027 294.318C423.16 295.422 422.811 295.91 421.374 296.29C420.1 296.627 419.144 296.134 418.088 295.528C418.143 294.176 419.334 292.857 419.451 291.338C419.52 290.448 418.958 289.33 418.328 288.704C413.789 284.19 386.665 285.327 379.515 285.667C378.764 286.065 378.175 286.375 377.692 287.115C376.903 288.326 376.934 289.604 377.299 290.94C377.388 291.265 377.488 291.588 377.583 291.912L377.641 294.718Z"/>
	<path fill="#E5989B" d="M216.76 289.059C219.475 286.97 221.917 285.005 225.26 284.003C232.401 281.864 264.293 281.291 272.298 282.346C281.48 283.555 288.83 288.136 294.415 295.478C303.737 307.733 302.801 320.702 302.388 335.217C302.245 340.255 302.477 345.653 301.874 350.631C301.738 351.761 301.699 352.381 300.764 353.104C295.153 346.936 308.013 314.762 288.584 299.735C284.555 296.619 279.635 294.548 274.523 294.298C261.547 292.887 247.977 294.163 234.932 294.029C233.415 294.014 231.861 293.975 230.737 292.846L230.768 291.724C235.187 285.971 267.011 292.129 273.677 289.358C273.93 289.253 274.173 289.126 274.422 289.01C274.061 287.725 273.415 286.29 272.066 285.757C268.701 284.428 237.687 285.359 233.034 285.831C231.174 286.02 229.049 286.225 227.435 287.238C226.679 287.713 226.628 287.97 226.201 288.706C226.325 291.089 228.433 292.304 228.482 294.531C227.323 295.264 226.496 295.313 225.165 295.454C223.467 294.808 223.215 294.098 222.463 292.482C222.021 291.532 221.608 291.118 220.729 290.515C219.813 290.819 218.908 291.135 218.006 291.476L216.76 289.059Z"/>
	<path fill="#E5989B" d="M286.339 485.972C313.641 495.033 323.797 496.054 351.15 486.702C351.678 492.96 350.804 499.547 351.671 505.686C333.894 504.663 317.654 507.303 300.038 501.814C295.179 500.3 290.729 497.903 286.028 496.007L286.339 485.972Z"/>
	<path fill="#FFB4A2" d="M267.88 216.547C273.636 222.479 279.19 228.65 285.242 234.282C307.873 255.34 332.563 269.49 360.767 281.716C358.357 283.647 355.778 285.525 353.526 287.631C350.663 284.96 336.593 280.495 331.959 278.3C321.668 273.424 311.874 265.768 302.811 258.912C296.24 253.941 289.68 248.426 284.032 242.425C278.749 236.811 274.014 227.1 267.293 223.475L266.793 223.21Q265.979 222.789 265.151 222.395L267.88 216.547Z"/>
	<path fill="white" d="M67.2631 845.713C68.6562 844.005 69.9941 843.311 72.2009 843.032C79.8167 842.07 96.8823 847.25 105.281 848.88Q151.362 857.488 197.314 866.76L234.539 874.498C240.976 875.826 247.43 877.616 253.99 878.185C254.334 879.487 254.62 879.667 254.102 880.966L253.358 880.992C251.489 881.38 250.839 881.811 249.57 883.224C233.924 880.878 218.66 876.848 203.151 873.786L121.402 858.351C116.281 857.368 69.1636 847.981 68.2266 847.135C67.8019 846.751 67.5843 846.187 67.2631 845.713Z"/>
	<path fill="#B5838D" d="M205.14 703.294C207.319 702.549 209.411 702.094 211.671 701.691C219.531 724.504 223.993 748.523 229.284 772.025C231.354 781.215 232.572 790.729 235.85 799.59C233.187 800.857 230.233 801.438 227.354 802.027C224.154 792.305 223.057 781.843 220.918 771.842C216.129 749.454 211.53 726.942 205.741 704.79C205.162 712.359 212.377 740.008 214.326 749.017Q219.813 773.557 224.084 798.338L223.819 798.027C223.026 797.109 222.192 796.19 221.514 795.181C219.937 792.832 200.952 706.164 201.283 704.635C202.467 703.699 203.702 703.564 205.14 703.294Z"/>
	<path fill="#FFCDB2" d="M162.901 167.037C166.921 168.225 170.888 169.793 174.845 171.185C183.512 174.451 192.397 177.432 200.95 180.973C190.015 194.364 178.556 198.845 165.066 207.962C160.303 210.356 155.365 212.835 150.285 214.462C151.25 209.847 151.691 205.104 152.538 200.46C154.617 189.055 158.045 177.554 162.901 167.037Z"/>
	<path fill="white" d="M354.845 511.188C360.808 512.886 367.348 513.013 373.526 512.972C371.093 515.684 370.655 519.749 369.766 523.201C365.956 537.99 362.511 555.352 349.359 564.835C339.826 560.272 330.468 553.364 322.314 546.658C336.855 537.583 348.507 527.564 354.845 511.188Z"/>
	<path fill="#B5838D" d="M526.599 511.613Q531.995 511.347 537.397 511.312C537.733 515.887 537.82 520.501 538.01 525.086C538.455 535.282 538.92 546.062 540.572 556.124C540.234 562.788 541.245 570.102 541.717 576.779C542.79 591.983 544.233 607.272 544.581 622.509L530.258 622.491Q527.591 567.08 526.599 511.613Z"/>
	<path fill="white" d="M540.595 514.234C554.013 513.9 567.46 514.235 580.883 514.262L648.175 514.128L687.434 513.988C693.935 513.972 701.245 513.333 707.638 514.362C711.381 514.964 715.592 517.575 718.319 520.077C722.253 523.686 725.044 528.646 725.712 533.968C723.12 533.426 719.614 529.286 717.527 527.487C714.606 524.971 711.181 522.644 707.278 522.102C700.732 521.193 693.216 521.88 686.583 521.858Q662.726 521.662 638.869 521.853L574 521.922C563.225 521.972 552.129 521.563 541.389 522.354C540.959 519.634 540.742 516.979 540.595 514.234Z"/>
	<path fill="#E5989B" d="M430.401 168.167C443.997 161.691 456.803 154.855 469.679 147.006C479.925 163.211 486.234 182.476 489.976 201.165C468.386 194.707 448.993 180.449 430.401 168.167Z"/>
	<path fill="white" d="M266.79 514.681C271.95 513.25 277.088 511.796 282.465 511.556C286.47 522.478 296.86 532.826 306.126 539.484C309.752 542.09 313.7 544.278 317.421 546.759C307.555 554.908 291.489 565.561 279.245 569.101C271.628 552.77 263.879 533.002 266.79 514.681Z"/>
	<path fill="#FFCDB2" d="M139.737 318.716C141.331 316.712 142.748 315.535 145.383 315.291C150.551 314.812 159.6 322.291 162.696 320.928C163.558 320.548 164.538 319.421 165.187 318.73C171.895 327.708 171.128 338.164 170.604 348.842C166.306 339.559 159.989 325.122 149.604 321.314C146.812 320.29 144.271 320.198 141.596 321.547C141.291 321.701 140.991 321.866 140.699 322.045C138.372 324.071 135.309 327.217 135.289 330.564C135.283 331.57 135.439 332.036 135.899 332.898L136.741 333.498C144.373 335.064 152.763 340.47 157.127 347.054C157.258 347.252 157.383 347.455 157.511 347.656C156.547 348.435 155.511 349.228 154.781 350.241Q154.507 350.623 154.275 351.031Q154.043 351.44 153.857 351.872Q153.67 352.303 153.53 352.751Q153.39 353.2 153.3 353.661Q153.209 354.122 153.168 354.591Q153.126 355.059 153.136 355.529Q153.145 355.998 153.204 356.465Q153.263 356.931 153.372 357.388C154.066 360.252 156.173 362.556 158.694 363.987C160.042 364.753 162.098 365.796 163.604 365.368C162.792 361.589 156.807 359.421 155.92 354.767C155.647 353.334 155.982 352.751 156.702 351.541C158.919 350.028 161.679 349.389 164.361 349.54C167.568 349.721 169.497 352.314 171.462 354.524C171.365 361.888 172.637 369.491 173.037 376.884C168.084 379.767 162.546 381.62 156.786 380.342C148.19 378.434 140.868 369.981 136.526 362.74C129.655 351.284 126.998 337.574 130.258 324.569C133.325 322.611 137.15 321.266 139.737 318.716Z"/>
	<path fill="#FFCDB2" d="M321.621 860.218C351.885 875.532 382.853 889.404 413.5 903.917C425.884 909.781 438.475 915.412 450.578 921.839C450.381 925.65 450.236 929.441 450.228 933.257C448.348 933.644 426.536 922.298 423.211 920.782C389.246 905.299 354.701 890.891 321.475 873.808C321.39 869.276 321.515 864.749 321.621 860.218Z"/>
	<path fill="#FFCDB2" d="M286.028 496.007C290.729 497.903 295.179 500.3 300.038 501.814C317.654 507.303 333.894 504.663 351.671 505.686C351.743 506.093 351.795 506.263 351.741 506.721C349.954 521.915 331.473 535.239 320.032 543.275C311.442 538.04 303.576 532.588 296.663 525.209C287.457 515.382 285.579 509.473 286.028 496.007Z"/>
	<path fill="#FFCDB2" d="M498.177 601.942C499.628 587.321 500.801 572.635 502.062 557.994C502.64 551.291 502.7 544.206 503.898 537.61C504.31 535.342 504.832 533.233 506.107 531.281C510.184 525.042 516.572 522.633 523.506 521.081L524.625 574.252C524.764 580.628 525.198 586.997 525.065 593.377C524.891 596.073 524.904 598.647 525.065 601.342C520.178 601.424 500.61 600.416 498.177 601.942Z"/>
	<path fill="#FFCDB2" d="M321.484 877.395C331.935 881.756 342.159 887.557 352.423 892.435C372.022 901.749 391.887 910.343 411.697 919.192C424.741 925.018 437.449 931.394 450.868 936.348L451.218 951.323C407.761 932.555 365.773 910.52 322.243 891.914C322.287 887.124 321.623 882.206 321.484 877.395Z"/>
	<path fill="#E5989B" d="M270.997 215.816C280.477 215.817 288.627 221.583 298.062 221.548C308.196 228.719 326.112 240.059 337.421 244.367C339.447 247.013 382.275 267.607 388.883 270.559C394.738 273.175 400.848 275.261 406.67 277.929C402.469 277.918 398.085 277.645 393.911 278.089C384.769 278.086 375.62 276.798 366.643 278.976C331.607 267.451 296.237 242.426 270.997 215.816Z"/>
	<path fill="#FFCDB2" d="M667.185 887.114C672.424 888.948 700.928 900.55 703.671 903.538C705.078 905.07 705.627 907.206 705.557 909.227C701.889 911.446 666.823 919.302 659.501 921.146L526.789 955.087Q500.939 961.733 475.247 968.968C468.191 971.014 460.552 972.776 453.786 975.607C445.51 973.536 437.595 968.999 429.909 965.361C415.383 958.487 401.03 951.386 386.6 944.325C372.502 937.426 358.392 930.484 344.188 923.808C331.9 918.032 319.48 912.616 307.285 906.627C305.199 905.556 301.086 903.968 300.101 901.931C300.326 900.545 300.516 900.433 301.491 899.394C301.937 899.279 302.373 898.983 302.829 899.049C304.115 899.236 306.986 901.453 308.306 902.153C312.128 904.18 316.171 905.896 320.092 907.732L414.266 952.65C426.786 958.512 439.207 965.49 452.206 970.194C465.385 966.245 478.96 963.202 492.255 959.609C541.605 946.27 591.234 934.184 640.7 921.322Q656.459 917.084 672.335 913.304C680.789 911.334 690.115 910.204 698.046 906.623C688.746 900.555 677.065 898.122 667.48 892.534C666.825 890.855 667.134 888.905 667.185 887.114Z"/>
	<path fill="#B5838D" d="M285.497 208.984C292.776 211.166 302.417 213.083 308.797 217.238C311.632 219.084 313.895 221.745 316.634 223.725C318.409 225.009 320.599 225.996 322.536 227.029C335.375 233.878 348.642 239.806 361.996 245.569C385.583 255.747 409.267 266.001 433.289 275.107C449.431 281.226 469.97 287.317 484.939 294.769C484.262 297.216 483.485 302.291 481.327 303.842C477.363 306.693 466.303 303.257 462.066 301.883C457.846 300.515 453.66 299.07 449.41 297.796C441.921 288.246 428.488 280.451 416.407 278.911C408.96 277.961 401.324 278.942 393.911 278.089C398.085 277.645 402.469 277.918 406.67 277.929C400.848 275.261 394.738 273.175 388.883 270.559C382.275 267.607 339.447 247.013 337.421 244.367C332.922 239.774 322.217 234.567 316.347 230.828C305.858 224.147 295.2 216.766 285.497 208.984Z"/>
	<path fill="#E5989B" d="M252.937 207.545C256.726 210.417 260.974 212.65 265.101 214.995C250.384 251.226 225.485 283.152 188.664 298.55C182.479 301.136 164.185 308.003 157.868 305.364C156.22 304.676 155.486 303.841 154.86 302.17C153.556 298.692 153.268 294.917 152.009 291.403C164.379 287.208 176.305 283.095 187.932 277.041C220.466 260.1 241.488 243.904 252.937 207.545Z"/>
	<path fill="#FFCDB2" d="M188.907 779.372C196.018 781.735 221.07 797.52 224.522 803.897C225.958 806.55 224.781 809.379 224.052 812.064C218.186 809.78 212.922 806.886 207.674 803.426C204.516 801.345 201.216 798.599 197.729 797.188L197.618 797.876C202.441 807.043 216.415 812.798 225.301 817.148C225.934 819.374 226.664 821.603 225.749 823.865C225.262 825.069 224.481 825.732 223.3 826.212C217.115 828.728 191.809 812.129 184.913 808.462C189.914 815.985 198.842 821.158 206.557 825.466C209.848 827.237 217.063 829.414 219.264 832.313C220.221 833.574 220.757 836.093 220.309 837.618C219.971 838.77 219.137 839.457 218.023 839.831C210.517 842.357 189.124 828.056 181.362 824.628L180.671 824.327C186.379 830.855 209.796 842.089 210.585 844.013C210.361 844.357 209.995 844.96 209.692 845.22C208.573 846.179 207.157 845.78 205.844 845.546C194.148 843.462 171.175 834.384 164.19 824.229C164.642 821.825 165.091 819.41 165.661 817.031C168.719 804.266 177.426 786.426 188.907 779.372Z"/>
	<path fill="#E5989B" d="M396.214 188.192C406.067 181.228 418.038 177.051 427.988 170.027C449.223 183.397 467.045 196.214 490.722 205.423Q492.12 217.442 493.028 229.508C465.532 224.357 438.979 212.312 414.5 199.114C408.385 195.817 401.67 192.495 396.214 188.192Z"/>
	<path fill="#FFB4A2" d="M204.114 181.983C212.854 185.54 221.868 188.109 230.641 191.499C224.509 206.918 210.105 218.922 198.136 229.873C197.917 231.652 194.993 233.46 193.578 234.563C190.192 237.203 186.412 240.762 182.366 242.226C181.39 242.579 181.049 242.807 180.35 243.54L180.782 244.212C182.09 244.122 182.425 244.123 183.364 243.096C183.492 242.956 183.568 242.776 183.682 242.625C185.578 240.122 192.834 236.276 195.806 234.315L196.553 234.393C190.661 241.276 166.844 253.396 158.229 257.149C156.369 257.95 153.749 259.486 151.696 258.845L151.883 257.983C153.681 256.238 155.818 255.514 158.095 254.579C157.718 243.649 159.17 234.26 161.451 223.663C162.077 220.757 164.641 214.135 163.937 211.686C178.234 203.852 194.138 195.268 204.114 181.983Z"/>
	<path fill="#5E2D4A" d="M198.136 229.873C197.917 231.652 194.993 233.46 193.578 234.563C190.192 237.203 186.412 240.762 182.366 242.226C181.39 242.579 181.049 242.807 180.35 243.54L180.782 244.212C182.09 244.122 182.425 244.123 183.364 243.096C183.492 242.956 183.568 242.776 183.682 242.625C185.578 240.122 192.834 236.276 195.806 234.315L196.553 234.393C190.661 241.276 166.844 253.396 158.229 257.149C156.369 257.95 153.749 259.486 151.696 258.845L151.883 257.983C153.681 256.238 155.818 255.514 158.095 254.579C166.614 250.615 175.176 246.385 183.004 241.171C188.23 237.69 193.087 233.608 198.136 229.873Z"/>
	<path fill="#FFB4A2" d="M482.657 307.543C485.921 307.251 489.309 307.155 492.557 307.673C499.796 308.829 505.953 312.857 510.246 318.733C515.725 326.235 516.424 335.213 514.974 344.106C512.955 356.492 506.937 367.687 496.7 375.11C488.641 380.452 479.452 381.285 470.022 381.229C470.946 367.339 472.299 353.388 473.49 339.51C473.932 334.371 475.159 329.046 475.041 323.911C474.974 321.013 474.026 316.05 474.882 313.355C475.99 309.869 479.626 308.759 482.657 307.543Z"/>
	<path fill="#5E2D4A" d="M485.418 367.125C484.407 366.846 483.629 366.528 482.822 365.855C477.999 361.829 477.181 348.218 476.622 342.205C476.067 336.232 476.761 330.339 480.839 325.631C483.404 322.671 486.715 321.147 490.6 320.862C493.978 320.614 496.604 321.435 499.16 323.69C503.165 327.223 503.687 332.236 503.913 337.247L503.072 338.548C501.966 338.397 502.29 338.665 501.727 337.89C499.041 334.193 499.591 325.653 494.048 323.998C491.53 323.246 487.339 324.547 485.236 325.94C482.243 327.924 480.93 331.286 480.376 334.708C479.241 341.73 481.714 359.548 485.855 365.494C486.25 366.061 486.267 366.051 486.678 366.47C486.045 367.155 486.447 366.905 485.418 367.125Z"/>
	<path fill="#E5989B" d="M315.878 858.561L316.624 858.666C317.77 861.427 317.228 883.17 317.362 887.536C311.35 890.475 299.033 892.992 295.542 898.728C294.754 900.023 294.6 901.407 295.097 902.852C297.222 909.037 316.134 915.776 322.352 919.169C309.499 923.75 296.97 929.213 284.127 933.844C277.701 936.535 271.088 938.887 264.582 941.386C264.154 920.1 264.945 898.799 264.545 877.506C281.313 870.792 298.638 863.937 315.878 858.561Z"/>
	<path fill="#FFCDB2" d="M445.525 627.098C456.627 627.526 467.904 627.115 479.023 627.106L544.709 627.104L793.322 626.968C794.65 629.41 797.098 631.961 797.062 634.784C795.71 635.807 794.791 635.525 793.125 635.539L441.532 635.551Q443.58 631.349 445.525 627.098Z"/>
	<path fill="#E5989B" d="M317.176 893.418C319.123 895.336 321.141 896.417 323.54 897.638C351.222 909.044 378.232 922.378 405.269 935.239C414.89 939.816 424.523 944.097 434.274 948.375C439.191 950.531 443.867 953.154 448.99 954.816C449.241 954.897 449.488 954.989 449.74 955.067C452.528 955.934 455.876 954.97 458.658 954.345C467.555 952.348 476.303 949.618 485.163 947.451L599.619 918.669Q625.244 912.306 650.761 905.525C655.989 904.136 662.803 903.281 667.564 900.841L667.653 898.782C668.67 898.235 670.159 898.821 671.248 899.152C676.334 900.698 681.622 903.263 686.359 905.671Q569.092 934.089 452.649 965.715C444.434 962.604 436.537 958.298 428.55 954.626Q395.255 939.009 362.222 922.845C353.114 918.402 344.025 913.908 334.861 909.583C330.459 907.505 325.213 905.654 321.118 903.113C316.573 901.405 312.111 899.221 307.655 897.277C310.738 895.687 313.906 894.559 317.176 893.418Z"/>
	<path fill="#E5989B" d="M361.369 208.233C371.794 202.206 382.446 194.876 393.484 190.133C420.841 206.811 461.346 227.657 493.155 232.503C493.121 241.313 493.025 250.602 491.697 259.314C483.179 256.635 474.562 254.27 466.083 251.473Q439.091 242.748 412.872 231.921Q386.653 221.094 361.369 208.233Z"/>
	<path fill="white" d="M432.591 449.974L433.164 450.327C435.143 454.848 435.465 460.546 436.007 465.442C438.257 485.751 438.65 506.369 435.179 526.551C418.009 517.852 401.797 512.075 383.634 505.983C374.31 502.7 365.286 500.049 355.646 497.856C355.843 493.364 356.188 488.977 356.81 484.524C380.973 478.13 412.518 464.713 432.591 449.974Z"/>
	<path fill="#FFCDB2" d="M336.934 789.509L436.033 789.481C436.217 798.187 436.522 806.911 436.142 815.614Q416.035 820.36 396.041 825.56C380.106 829.553 364.421 833.404 348.767 838.452Q342.327 814.107 336.934 789.509Z"/>
	<path fill="#FFCDB2" d="M305.6 41.6023C308.542 42.7533 311.552 43.7642 314.53 44.8238C314.034 46.3439 313.928 47.0452 312.439 47.7778C307.715 50.1009 300.871 51.8487 295.537 54.2532C263.341 68.7676 230.844 82.5943 198.944 97.7536C179.692 106.903 158.874 116.033 141.248 128.002C137.336 130.658 133.822 133.8 130.131 136.739Q166.316 152.819 203.057 167.586L250.739 186.445C260.565 190.325 283.374 198.032 290.773 204.136L291.122 205.128L290.648 205.809C274.202 201.598 258.294 196.363 242.27 190.787C217.297 182.099 192.581 172.729 167.698 163.793C149.544 157.274 130.365 151.391 112.899 143.278C111.292 142.532 108.714 141.553 108.046 139.813C107.051 137.224 108.427 134.009 109.322 131.549C116.629 126.401 125.946 122.772 133.941 118.699C170.133 100.259 207.81 84.4198 244.945 67.9971L282.034 51.4163C289.755 47.9636 297.502 44.0791 305.6 41.6023Z"/>
	<path fill="#E5989B" d="M233.739 192.708C238.859 194.602 244.109 197.085 249.398 198.37C251.956 197.831 256.52 199.108 258.845 200.278L258.967 200.653C257.414 200.619 256.581 200.304 255.468 201.673C254.3 203.11 253.596 205.792 252.937 207.545C241.488 243.904 220.466 260.1 187.932 277.041C176.305 283.095 164.379 287.208 152.009 291.403C151.62 289.739 151.6 289.398 152.061 287.758L156.706 286.528C156.501 276.618 157.301 267.011 158.229 257.149C166.844 253.396 190.661 241.276 196.553 234.393C209.476 226.648 227.247 205.781 233.739 192.708Z"/>
	<path fill="#5E2D4A" d="M249.398 198.37C251.956 197.831 256.52 199.108 258.845 200.278L258.967 200.653C257.414 200.619 256.581 200.304 255.468 201.673C254.3 203.11 253.596 205.792 252.937 207.545C241.488 243.904 220.466 260.1 187.932 277.041C176.305 283.095 164.379 287.208 152.009 291.403C151.62 289.739 151.6 289.398 152.061 287.758L156.706 286.528C175.303 280.87 197.254 270.313 212.931 258.717C230.701 245.572 242.033 230.324 248.922 209.301C249.861 206.436 251.647 203.163 252.088 200.243C251.374 198.809 250.859 198.911 249.398 198.37Z"/>
	<path fill="#E5989B" d="M818.007 793.012L837.037 792.795L831.186 846.434C830.281 854.745 829.899 863.387 828.479 871.599C798.228 872.094 767.927 871.756 737.67 871.853C715.812 871.923 693.657 872.724 671.831 871.815C670.241 871.749 668.751 871.784 667.464 870.817L667.051 869.137C670.837 864.246 694.562 865.135 694.246 857.924C694.2 856.86 693.697 855.722 693.328 854.731C694.099 853.733 694.277 853.828 695.488 853.688C703.435 852.766 715.389 853.637 723.906 853.658L782.77 853.722C793.201 853.729 803.958 854.273 814.343 853.52C815.534 840.297 816.112 827.062 816.746 813.805C817.071 807.006 816.916 799.698 818.007 793.012Z"/>
	<path fill="#E5989B" d="M667.586 876.533L773.388 876.414C791.582 876.382 809.835 876.005 828.022 876.39C826.697 884.67 825.757 893.034 824.679 901.351C824.58 902.407 824.523 902.879 823.825 903.696C821.031 904.755 721.344 904.022 710.127 904.004C699.119 892.662 681.419 890.144 668.008 882.425L667.586 876.533Z"/>
	<path fill="white" d="M199.862 659.05C201.332 663.991 200.718 681.325 201.06 688.057C197.929 689.121 190.241 690.88 188.582 693.932C186.886 697.051 201.492 758.136 203.592 767.519C196.121 770.707 188.68 773.839 181.568 777.784C178.578 771.636 174.942 765.817 171.448 759.946C165.055 749.598 157.949 739.419 150.547 729.775C147.546 725.864 144.184 722.258 141.226 718.322C150.984 701.642 161.941 685.644 172.497 669.469C174.572 671.064 177.463 673.868 180.189 673.99C186.052 674.252 195.893 663.211 199.862 659.05Z"/>
	<path fill="#B5838D" d="M327.338 750.565C337.92 752.33 352.549 751.171 363.489 751.162L435.515 751.087C435.505 763.892 435.914 776.68 436.033 789.481L336.934 789.509C334.12 776.469 330.628 763.493 327.338 750.565Z"/>
	<path fill="#B5838D" d="M845.671 751.131C855.062 750.499 864.865 751.042 874.298 751.021Q897.935 750.979 921.564 750.39C931.006 750.212 941 750.825 950.254 748.884C947.539 762.958 946.641 777.7 944.802 791.937C911.372 791.915 877.791 791.535 844.374 792.601C843.625 792.602 842.922 792.362 842.368 792.922C841.873 793.423 841.685 793.876 841.415 794.511C842.54 789.237 842.792 783.554 843.341 778.173C844.259 769.179 845.355 760.169 845.671 751.131Z"/>
	<path fill="#E5989B" d="M358.608 210.404C368.96 214.797 378.825 220.232 389.063 224.86C404.064 231.64 419.505 237.306 434.86 243.21C453.066 250.21 472.261 258.212 491.483 261.841C491.552 261.854 491.62 261.869 491.689 261.882C490.334 272.036 488.764 282.005 485.748 291.821C476.703 286.856 466.655 283.79 456.953 280.372Q441.465 274.944 426.151 269.041Q373.723 248.527 322.886 224.338C326.325 223.341 329.98 222.925 333.474 222.086C342.971 219.808 350.51 215.75 358.608 210.404Z"/>
	<path fill="#E5989B" d="M547.554 598.591C549.156 599.125 720.379 599.842 731.547 598.481C732.255 606.479 733.282 614.461 734.153 622.444L549.197 622.524C548.891 614.539 547.69 606.579 547.554 598.591Z"/>
	<path fill="#FFCDB2" d="M265.151 222.395Q265.979 222.789 266.793 223.21L267.293 223.475C274.014 227.1 278.749 236.811 284.032 242.425C289.68 248.426 296.24 253.941 302.811 258.912C311.874 265.768 321.668 273.424 331.959 278.3C336.593 280.495 350.663 284.96 353.526 287.631C343.657 297.788 340.307 306.969 338.223 320.826C327.509 318.532 317.225 319.328 306.418 320.239C306.49 318.517 306.478 316.85 306.279 315.135C304.98 303.905 300.036 293.141 291.049 286.074Q289.421 284.78 287.661 283.673Q285.9 282.566 284.029 281.66Q282.157 280.753 280.197 280.059Q278.237 279.364 276.212 278.89C267.331 276.895 236.226 277.745 226.449 278.873C230.561 274.698 234.948 270.801 238.854 266.421C250.359 253.52 258.502 238.214 265.151 222.395Z"/>
	<path fill="#FFCDB2" d="M453.58 921.032C472.964 917.044 492.089 911.578 511.306 906.866L663.518 869.355C663.627 878.766 664.014 888.202 664.034 897.606Q584.141 918.714 503.781 937.967C487.14 942.055 470.701 947.168 453.999 950.919C453.959 948.66 453.068 938.342 454.456 936.914C454.619 936.746 454.82 936.618 455.002 936.47C461.218 936.699 469.057 933.7 475.106 932.19Q489.984 928.603 504.822 924.854Q551.241 913.38 597.528 901.386C614.682 897.057 631.961 893.309 648.995 888.446C651.221 887.81 654.293 886.858 655.465 884.749L654.641 884.163C652.863 883.961 651.263 884.025 649.507 884.409C640.993 886.271 632.618 889.167 624.122 891.221L522.709 916.443Q501.462 921.825 480.157 926.977C471.251 929.087 461.639 930.634 453.085 933.869C452.763 929.615 453.272 925.279 453.58 921.032Z"/>
	<path fill="#FFCDB2" d="M306.602 745.421C310.453 747.479 313.978 748.478 318.26 749.22L328.082 796.727C329.807 805.245 330.855 814.572 333.645 822.768C334.083 824.054 333.701 825.891 334.358 827.735C330.127 828.286 314.073 824.272 308.405 823.29C287.263 819.626 265.951 816.386 244.879 812.408C243.695 809.205 241.588 806.365 240.591 803.201C237.394 793.057 236.829 782.096 233.401 771.991C248.022 765.414 263.8 759.878 279.021 754.816C288.262 751.742 297.532 748.997 306.602 745.421Z"/>
	<path fill="#FFCDB2" d="M144.558 808.455C160.821 826.379 166.152 836.918 190.247 845.503C196.067 847.576 201.82 849.508 208.047 849.826C209.382 849.894 211.248 849.946 212.32 849.053C213.287 848.246 213.753 846.93 214.295 845.828C214.763 844.876 214.531 845.284 215.175 844.372C218.457 843.48 222.531 842.733 224.369 839.512C225.418 837.676 225.124 835.773 224.528 833.842C224.246 832.927 223.861 832.089 223.449 831.227C224.149 830.299 224.889 830.049 225.905 829.537C227.274 828.847 227.817 828.619 228.527 827.228C228.987 826.325 229.485 825.439 229.949 824.537L230.407 824.48C233.286 831.022 242.815 854.935 247.677 857.727C248.944 857.162 249.145 856.137 249.627 854.862C253.839 843.732 249.863 834.562 248.093 823.549C268.262 828.391 288.87 831.682 309.27 835.433C317.037 836.862 325.256 837.896 332.887 839.845C334.302 840.207 335.451 840.507 336.599 841.456C336.193 842.534 335.721 842.494 334.693 842.961C329.602 845.271 319.072 847.151 316.925 852.668Q316.736 853.163 316.566 853.664C305.964 856.761 295.656 860.702 285.304 864.534C276.73 867.707 267.769 870.477 259.886 875.175C246.795 872.103 233.478 869.768 220.299 867.081L126.228 848.512C115.561 846.436 80.0733 837.851 72.129 838.7C72.4821 836.485 72.962 834.416 72.4807 832.188Q91.9994 826.183 111.304 819.522C122.326 815.707 133.283 811.456 144.558 808.455Z"/>
	<path fill="#FFCDB2" d="M216.76 289.059L218.006 291.476C218.159 292.926 218.323 294.48 218.991 295.803C220.149 298.097 222.776 299.023 225.144 299.444C229.228 300.17 234.004 299.5 238.137 299.347C245.913 299.061 274.231 297.924 279.54 299.545C285.617 301.399 290.535 306.136 293.308 311.768Q294.305 313.813 294.958 315.991Q295.611 318.17 295.904 320.426C297.101 329.089 297.292 355.444 294.659 363.26C291.721 371.979 285.917 379.065 277.566 383.061C265.798 388.693 242.11 389.139 230.003 384.71C220.938 381.394 214.227 374.527 210.239 365.82C205.562 355.611 201.802 325.667 205.724 315.165C205.231 313.237 204.556 311.428 203.845 309.571C206.541 301.055 210.311 295.25 216.76 289.059Z"/>
	<path fill="#5E2D4A" d="M249.86 364.845C252.577 365.921 254.578 368.367 257.605 369.302C265.365 371.7 268.554 365.678 272.165 366.049L271.993 367.744C271.53 368.294 271.064 368.842 270.563 369.358C268.077 371.916 263.925 372.978 260.456 373.022C257.437 373.06 254.223 372.375 252.041 370.152C250.457 368.539 249.862 367.079 249.86 364.845Z"/>
	<path fill="#6D6875" d="M261.952 316.485C263.59 316.618 265.412 317.074 266.875 317.828C270.396 319.643 272.615 323.3 273.652 327.015C275.924 335.155 276.229 350.264 271.88 357.703C269.559 361.672 266.674 363.753 262.284 364.952C261.055 364.776 259.899 364.586 258.731 364.147C255.037 362.762 252.531 359.61 251.092 356.021C247.866 347.98 247.694 333.421 251.244 325.493C253.524 320.4 257.005 318.394 261.952 316.485Z"/>
	<path fill="white" d="M259.557 320.518C261.556 320.403 263.743 320.174 265.556 321.196C268.091 322.625 270.053 325.661 270.855 328.4C271.437 330.383 271.485 332.839 270.266 334.613C269.023 336.423 267.032 336.512 265.049 336.731C263.077 336.875 260.884 336.991 258.939 336.647C256.953 336.295 254.968 335.016 253.96 333.244C252.991 331.542 252.78 329.279 253.432 327.431C254.62 324.058 256.478 322.149 259.557 320.518Z"/>
	<path fill="white" d="M122.775 626.493C135.944 603.627 164.579 562.808 183.407 545.454C190.301 539.099 201.636 531.325 211.482 531.717C211.572 531.819 211.677 531.91 211.753 532.023C215.538 537.638 213.831 629.504 210.782 641.495C209.34 645.822 207.2 649.729 203.01 651.892C201.701 652.054 201.332 651.657 200.568 650.563C198.268 647.266 196.968 641.9 195.369 638.088C193.332 633.233 181.489 606.742 178.777 604.873L178.222 605.316C178.142 610.294 186.657 625.505 188.891 631.523C191.493 638.443 194.618 645.373 196.909 652.38C194.694 657.575 191.849 660.528 187.445 664.047C185.08 665.922 182.648 667.722 180.247 669.552C174.897 666.162 169.482 662.795 164.505 658.869C153.472 651.203 131.059 636.749 122.775 626.493Z"/>
	<path fill="#FFCDB2" d="M194.765 606.504C198.579 613.429 208.593 631.813 210.055 638.371L210.782 641.495C209.34 645.822 207.2 649.729 203.01 651.892C203.253 651.191 203.462 650.895 203.974 650.33C204.67 649.561 205.289 648.804 205.926 647.987C206.068 642.748 196.402 614.987 194.765 606.504Z"/>
	<path fill="#FFCDB2" d="M179.056 637.379C177.024 631.175 175.743 624.599 174.514 618.195C177.532 622.153 180.37 629.536 185.077 631.633C186.451 632.245 187.533 631.984 188.891 631.523C191.493 638.443 194.618 645.373 196.909 652.38C194.694 657.575 191.849 660.528 187.445 664.047C185.08 665.922 182.648 667.722 180.247 669.552C174.897 666.162 169.482 662.795 164.505 658.869C170.545 652.718 173.978 644.298 179.056 637.379Z"/>
	<path fill="#FFCDB2" d="M444.458 308.329C445.219 309.732 445.334 311.43 445.491 313.006C446.088 319.011 445.592 325.168 445.554 331.193C445.464 345.345 446.463 358.194 436.846 369.768C427.022 381.592 413.982 385.975 399.07 387.224C385.065 388.397 370.309 386.717 359.258 377.25C353.133 372.002 349.599 365.285 349.012 357.2C348.58 351.254 348.613 322.219 349.766 317.178Q350.067 315.826 350.535 314.521Q351.002 313.217 351.629 311.981Q352.256 310.745 353.032 309.597Q353.808 308.449 354.721 307.407C358.247 303.451 363.522 299.702 368.793 298.822C373.358 298.06 381.458 299.896 386.31 300.227C397.994 301.025 410.621 301.567 422.308 301.046L422.884 301.016C424.708 302.16 442.319 308.055 444.458 308.329Z"/>
	<path fill="#5E2D4A" d="M375.735 363.901C376.666 364.1 376.414 363.988 377.121 364.305C390.325 370.23 389.551 364.021 395.172 364.985L395.497 366.488C393.987 367.66 392.587 368.694 390.723 369.237C387.067 370.3 382.611 370.284 379.239 368.359C377.211 367.2 376.366 366.13 375.735 363.901Z"/>
	<path fill="#6D6875" d="M381.574 318.603C383.549 318.337 385.747 318.105 387.708 318.555C390.966 319.302 393.68 321.894 395.284 324.729C399.075 331.429 398.879 344.612 396.639 351.885C395.165 356.669 392.696 360.066 388.262 362.399C386.089 362.889 384.058 363.257 381.857 362.678C378.61 361.824 375.969 359.385 374.437 356.449C370.835 349.543 370.804 335.093 373.322 327.81C374.947 323.109 377.178 320.754 381.574 318.603Z"/>
	<path fill="white" d="M384.356 321.638C385.74 321.685 386.876 321.744 388.117 322.414C390.317 323.603 392.153 326.088 392.804 328.483C393.339 330.456 393.36 333.458 392.117 335.197C390.69 337.192 388.398 337.533 386.172 338.142C384.101 338.196 380.764 338.525 378.893 337.447C377.419 336.597 376.276 335.315 375.816 333.657C375.132 331.189 375.842 328.601 377.136 326.463C379.035 323.325 380.877 322.481 384.356 321.638Z"/>
	<path fill="#B5838D" d="M432.616 608.153L469.929 608.076L464.404 622.692C456.869 622.77 449.32 622.751 441.788 622.952L441.588 623.505C439.961 627.876 434.53 635.001 436.527 639.527C440.668 640.994 487.481 640.047 495.167 640.05L638.044 640.281L747.105 640.035C763.953 639.979 781.049 640.724 797.858 640.089C799.632 640.021 802.258 639.841 803.844 638.956C804.576 638.547 804.609 638.471 805.155 637.976C805.506 636.008 804.59 634.567 803.722 632.812C801.715 628.752 804.402 625.421 798.845 623.34C792.257 620.874 766.653 624.205 763.971 621.648C763.408 618.167 763.046 614.056 761.154 611.008C761.029 609.766 760.975 610.392 761.354 609.134L763.524 608.476C781.067 609.416 798.88 608.257 816.47 608.606C822.996 623.479 830.69 637.901 837.57 652.63L566.771 653.023C513.628 653.004 460.351 652.279 407.226 653.436L432.616 608.153Z"/>
	<path fill="#FFCDB2" d="M128.119 636.963C141.533 646.662 154.019 657.473 167.94 666.512C164.665 675.014 157.737 683.152 152.705 690.834C147.673 698.518 142.957 706.608 137.6 714.053C132.672 710.4 127.728 707.285 121.974 705.1C121.066 705.697 120.734 706.063 120.258 707.04C120.583 708.165 120.697 708.546 121.661 709.309C123.673 710.902 126.337 711.745 128.477 713.207C133.418 716.58 137.845 721.548 141.73 726.042C154.093 740.341 170.815 765.78 178.947 783.053C170.746 793.515 163.816 806.978 160.563 819.928C155.794 815.106 151.623 809.725 147.192 804.596Q133.987 789.546 121.091 774.23C109.892 761.174 97.1129 748.435 87.4821 734.22C84.8221 730.294 82.524 725.367 81.5754 720.691C80.6027 715.896 81.1512 711.638 82.8362 707.097C87.0411 695.766 95.7365 685.084 102.546 675.118L123.335 644.45C124.938 641.978 126.652 639.516 128.119 636.963Z"/>
	<path fill="#B5838D" d="M327.964 922.003C332.889 922.12 397.751 955.252 407.304 959.899C418.343 965.27 430.221 969.715 440.787 975.966C420.552 977.123 399.846 975.99 379.546 976.001L251.75 976.008L154.325 975.982C163.482 960.914 173.542 946.168 183.605 931.693C199.914 934.994 216.208 938.755 232.468 942.316C241.991 944.401 251.977 947.285 261.717 947.776C268.733 943.583 277.218 941.353 284.868 938.495Q306.524 930.53 327.964 922.003Z"/>
	<path fill="#FFB4A2" d="M68.1243 902.878L67.6689 867.514C67.6434 860.583 68.4579 852.483 67.2631 845.713C67.5843 846.187 67.8019 846.751 68.2266 847.135C69.1636 847.981 116.281 857.368 121.402 858.351L203.151 873.786C218.66 876.848 233.924 880.878 249.57 883.224C248.843 889.392 249.496 896.284 249.495 902.537Q249.624 921.683 248.985 940.818C208.737 931.573 168.092 923.302 127.613 915.109C107.777 911.094 87.8363 907.472 68.1243 902.878Z"/>
	<path fill="#6D6875" d="M559.656 792.182C589.97 791.34 620.442 792.107 650.777 792.118L812.319 791.986C811.972 810.536 810.034 829.086 810.053 847.625L809.765 848.751C809.606 848.839 809.455 848.945 809.287 849.014C806.405 850.199 772.273 849.439 766.222 849.457Q737.003 849.612 707.785 849.283C701.548 849.245 694.5 850.317 688.372 849.228C680.219 847.778 667.388 840.657 659.375 837.133L590.945 806.34C580.541 801.634 570.264 796.397 559.656 792.182Z"/>
	<path fill="#E5989B" d="M844.374 792.601C877.791 791.535 911.372 791.915 944.802 791.937C942.416 806.941 940.646 822.157 938.823 837.242C937.398 849.027 937.297 862.778 932.722 873.814C929.363 881.919 923.224 889.205 916.113 894.296C901.543 904.727 884.451 903.991 867.385 903.987L838.323 903.991L829.521 904.026C830.136 894.65 831.639 885.322 832.649 875.981C834.219 861.453 835.444 846.88 837.264 832.38C838.809 820.071 841.571 806.882 841.415 794.511C841.685 793.876 841.873 793.423 842.368 792.922C842.922 792.362 843.625 792.602 844.374 792.601Z"/>
	<path fill="#FFCDB2" d="M841.415 794.511C841.685 793.876 841.873 793.423 842.368 792.922C842.922 792.362 843.625 792.602 844.374 792.601C846.873 792.87 849.186 792.876 851.686 792.749C850.551 818.785 846.678 845.187 843.148 871.008C841.678 881.761 840.918 893.515 838.323 903.991L829.521 904.026C830.136 894.65 831.639 885.322 832.649 875.981C834.219 861.453 835.444 846.88 837.264 832.38C838.809 820.071 841.571 806.882 841.415 794.511Z"/>
	<path fill="#FFCDB2" d="M541.389 522.354C552.129 521.563 563.225 521.972 574 521.922L638.869 521.853Q662.726 521.662 686.583 521.858C693.216 521.88 700.732 521.193 707.278 522.102C711.181 522.644 714.606 524.971 717.527 527.487C719.614 529.286 723.12 533.426 725.712 533.968C727.747 541.323 727.578 552.154 728.242 559.968C729.323 572.678 731.11 585.753 731.547 598.481C720.379 599.842 549.156 599.125 547.554 598.591C547.263 584.962 545.155 569.837 543.999 556.083C543.552 545.522 543.013 533.771 541.055 523.409L541.389 522.354Z"/>
	<path fill="#B5838D" d="M440.323 751.108L841.114 750.97Q839.205 771.895 837.037 792.795L818.007 793.012L817.965 786.992L566.051 787.013L503.907 787.127C490.888 787.102 477.715 786.671 464.717 787.218C462.968 787.292 461.284 787.186 459.91 788.315C453.91 789.342 446.493 788.655 440.338 788.702C441.043 776.211 440.277 763.616 440.323 751.108Z"/>
	<path fill="#FFCDB2" d="M323.994 720.147C335.776 722.602 348.743 721.463 360.76 721.44L418.465 721.341L638.061 721.352L844.093 721.153L911.169 721.446C921.362 721.526 934.949 722.512 944.633 721.561C946.849 721.343 949.813 721.017 951.729 719.842C954.545 718.115 956.746 715.344 957.399 712.074C957.728 710.424 957.662 708.889 957.475 707.229C958.413 706.953 958.586 707.074 959.431 707.531C962.857 709.384 965.145 713.053 966.142 716.713C967.161 720.457 968.978 730.919 967.061 734.155C966.977 734.296 966.87 734.422 966.774 734.555C964.44 739.282 960.042 741.782 955.205 743.404C951.097 744.781 946.887 745.443 942.562 745.534Q869.578 746.424 796.59 746.123L504.929 746.296L375.358 746.355L339.366 746.222C333.378 746.186 326.599 746.732 320.732 745.709C314.415 745.041 312.427 743.577 308.23 738.811C307.772 734.169 308.171 729.642 308.673 725.02C309.466 727.27 311.387 728.562 313.506 729.612C316.748 731.219 320.193 731.845 323.726 732.471C323.301 728.361 323.703 724.254 323.994 720.147Z"/>
	<path fill="#E5989B" d="M966.734 727.4C966.87 729.801 966.89 731.857 966.475 734.227L966.774 734.555C964.44 739.282 960.042 741.782 955.205 743.404C951.097 744.781 946.887 745.443 942.562 745.534Q869.578 746.424 796.59 746.123L504.929 746.296L375.358 746.355L339.366 746.222C333.378 746.186 326.599 746.732 320.732 745.709C321.658 745.645 322.447 745.552 323.336 745.282C324.869 741.988 323.239 737.155 322.561 733.702C336.706 734.771 350.997 734.481 365.175 734.485L426.711 734.526L646.988 734.603L852.256 734.512L907.867 733.596C921.452 733.448 935.373 733.853 948.922 732.904C955.408 732.45 961.243 730.985 966.734 727.4Z"/>
	<path fill="white" d="M547.676 792.558C547.973 792.534 548.269 792.504 548.566 792.487C549.706 792.42 550.656 792.623 551.695 793.083C565.43 799.157 578.776 806.198 592.509 812.34C606.686 818.68 620.802 825.202 635.038 831.407C647.064 836.648 682.543 850.546 690.825 857.602C683.091 860.616 674.497 862.237 666.424 864.195L619.644 875.285L461.675 914.839Q456.49 916.089 451.379 917.61C440.599 911.143 428.836 906.162 417.497 900.756L349.151 868.779C343.519 866.137 326.832 859.501 323.202 856.535C321.943 855.506 321.73 854.729 321.606 853.153C323.859 850.018 331.006 848.03 334.639 846.812C354.778 840.059 376.224 835.105 396.832 829.988Q435.916 820.018 475.102 810.456C499.371 804.677 523.718 799.591 547.676 792.558Z"/>
	<path fill="#B5838D" d="M918.769 897.403C921.123 899.722 926.038 909.437 928.497 913.156C942.271 933.997 957.21 954.124 969.611 975.848C950.593 976.716 931.254 975.995 912.195 976.062Q853.44 976.779 794.684 976.087L518.375 976.047C501.137 976.059 483.86 976.314 466.627 975.918C477.271 972.798 487.891 969.477 498.616 966.653C512.037 963.118 525.602 960.146 539.033 956.652L656.383 926.292C664.029 924.323 705.229 914.996 709.268 912.555C709.612 911.817 709.753 911.311 709.871 910.485C709.91 910.214 709.938 909.942 709.971 909.67C710.961 908.804 711.792 908.713 713.052 908.613C727.715 907.447 745.178 908.329 760.128 908.355L843.297 908.383C858.421 908.428 879.973 909.858 894.29 907.487C903.421 905.975 911.349 902.943 918.769 897.403Z"/>
	<path fill="#FFCDB2" d="M183.073 324.727C187.775 325.217 192.396 324.958 196.229 321.879C198.576 319.994 200.113 317.357 201.656 314.819C201.328 336.611 198.694 363.046 215.187 380.011C224.644 389.739 237.057 392.328 250.223 392.421C264.366 392.521 279.345 390.873 289.806 380.315C293.823 376.261 296.436 371.381 298.344 366.047C298.965 364.309 299.378 362.265 300.218 360.646C301.58 358.021 303.66 356.313 304.414 353.276C305.775 347.8 305.268 341.368 305.307 335.743C316.09 333.575 327.683 334.09 338.645 334.04C338.493 340.925 336.734 353.559 341.785 358.975C342.632 359.884 343.731 360.583 344.753 361.28C344.769 361.292 344.785 361.304 344.802 361.315C349.218 373.864 353.034 381.049 365.499 386.974C381.094 394.388 404.031 393.566 419.988 387.711C429.361 384.271 436.132 378.268 442.438 370.633C448.085 361.653 449.934 353.15 449.989 342.568C450.194 342.664 450.391 342.778 450.603 342.856C455.074 344.503 465.334 338.586 469.185 336.593L466.336 371.785C464.05 398.789 460.948 420.308 439.112 438.882C414.618 459.717 383.389 471.177 353.315 481.215C341.859 485.039 329.398 490.114 317.101 489.037C307.4 488.187 286.896 482.722 278.412 478.147C271.825 476.222 265.409 473.314 259.088 470.653C238.339 461.922 218.8 451.994 201.873 436.86C197.079 432.574 192.687 427.833 189.407 422.273C173.47 395.253 176.662 352.476 174.917 321.86L180.841 319.987C181.458 321.722 182.076 323.175 183.073 324.727Z"/>
	<path fill="#5E2D4A" d="M315.469 387.433C319.614 387.515 330.562 386.147 333.491 388.778C333.745 390.315 333.41 390.556 332.696 391.894C332.028 392.103 331.431 392.288 330.733 392.376C326.452 392.915 318.932 393.735 315.44 390.816C314.9 389.323 315.119 388.941 315.469 387.433Z"/>
	<path fill="#5E2D4A" d="M304.326 408.657C312.485 408.223 320.803 408.417 328.979 408.391C333.341 408.377 339.155 408.133 342.387 411.609C343.932 413.272 344.442 415.56 344.227 417.778C343.489 425.379 339.928 431.209 334.161 436.016C333.107 436.706 332.04 437.355 330.903 437.9Q330.379 438.151 329.842 438.376Q329.306 438.601 328.759 438.798Q328.212 438.995 327.656 439.165Q327.099 439.335 326.535 439.476Q325.971 439.617 325.401 439.73Q324.83 439.843 324.255 439.927Q323.679 440.011 323.101 440.066Q322.522 440.122 321.941 440.147Q321.36 440.173 320.778 440.17Q320.197 440.166 319.616 440.134Q319.035 440.101 318.457 440.039Q317.879 439.978 317.305 439.887Q316.73 439.796 316.161 439.677Q315.592 439.557 315.03 439.409Q314.467 439.261 313.913 439.085Q313.359 438.909 312.814 438.705C307.014 436.516 302.884 432.128 300.306 426.573C298.554 422.798 297.176 417.85 298.815 413.815C299.985 410.934 301.537 409.844 304.326 408.657Z"/>
	<path fill="white" d="M304.219 414.187C310.419 413.884 333.163 412.753 337.825 414.451C338.607 415.556 338.85 416.138 338.835 417.512C338.787 421.917 336.724 426.829 333.748 429.985C329.71 433.107 324.85 434.979 319.694 434.801Q318.891 434.78 318.095 434.678Q317.299 434.576 316.517 434.395Q315.734 434.214 314.975 433.954Q314.215 433.695 313.485 433.361Q312.755 433.026 312.063 432.62Q311.37 432.214 310.722 431.74Q310.074 431.266 309.477 430.729Q308.88 430.192 308.34 429.598C304.102 424.959 303.923 420.08 304.219 414.187Z"/>
	<path fill="#FFB4A2" d="M449.989 342.568C450.194 342.664 450.391 342.778 450.603 342.856C455.074 344.503 465.334 338.586 469.185 336.593L466.336 371.785C464.05 398.789 460.948 420.308 439.112 438.882C414.618 459.717 383.389 471.177 353.315 481.215C341.859 485.039 329.398 490.114 317.101 489.037C307.4 488.187 286.896 482.722 278.412 478.147L278.225 477.388C263.974 472.47 231.572 459.523 220.663 449.882C218.636 448.09 217.484 445.946 217.483 443.206C217.482 440.661 218.825 435.908 220.623 434.035C225.064 436.582 228.933 441.291 232.979 444.524C237.253 447.94 261.614 465.294 265.804 465.38C261.487 462.009 255.807 459.366 251.101 456.437C239.441 449.177 228.469 440.702 219.075 430.649C222.066 430.749 225.381 434.306 227.627 436.171Q236.63 443.646 246.374 450.125Q256.118 456.603 266.494 462.013C280.845 469.352 304.313 478.145 320.717 477.464C325.844 477.251 330.942 475.76 335.787 474.173C371.543 462.46 413.804 440.503 431.409 405.587C433.81 400.826 443.757 374.641 442.438 370.633C448.085 361.653 449.934 353.15 449.989 342.568Z"/>
	<path fill="#E5989B" d="M378.374 509.005C392.942 514.384 408.382 518.612 422.428 525.246L413.059 588.47C409.365 588.541 405.682 588.658 402.005 589.041C395.356 589.734 385.043 591.93 380.705 597.481C373.795 606.322 368.25 616.387 362.13 625.798L324.745 683.574C319.597 691.556 309.926 702.716 306.681 711.037C303.903 718.16 304.241 727.846 303.734 735.412C279.313 742.913 255.423 752.129 230.858 759.191C227.669 748.144 215.178 691.969 211.819 687.875C210.37 686.107 208.692 685.962 206.58 685.587L205.836 685.461C203.933 679.303 204.722 664.312 204.481 657.017C206.555 655.3 208.608 653.377 210.365 651.333C212.187 649.213 213.631 646.801 214.358 644.088C216.044 637.79 216.103 630.57 216.602 624.061Q218.225 601.325 218.163 578.532Q218.101 555.739 216.354 533.012C231.497 526.416 247.596 523.715 262.004 517.637C261.69 522.94 261.538 528.136 262.271 533.416C263.555 542.681 271.164 567.816 276.809 573.921C277.333 574.488 277.656 574.808 278.465 574.808C278.841 574.808 279.667 574.623 280.053 574.544C280.582 575.828 280.9 577.123 282.18 577.835C288.065 578.403 295.921 572.465 302.409 571.752C307.984 571.139 313.545 571.961 319.118 571.97C326.408 571.982 334.412 570.308 341.562 571.909C346.872 573.098 351.983 576.573 357.224 577.321C357.786 576.84 358.305 576.385 358.809 575.842C359.798 575.509 360.572 574.948 361.271 574.179C364.274 570.88 366.332 566.576 368.349 562.638C377.653 544.475 378.838 529.027 378.374 509.005Z"/>
	<path fill="#572E4C" d="M317.658 642.548C319.405 642.427 321.154 642.369 322.879 642.736C325.689 643.335 328.28 645.106 329.749 647.588Q330.014 648.04 330.233 648.515Q330.453 648.991 330.624 649.486Q330.796 649.981 330.918 650.49Q331.04 650.999 331.111 651.518Q331.183 652.037 331.203 652.56Q331.223 653.083 331.192 653.606Q331.161 654.129 331.078 654.646Q330.996 655.163 330.863 655.67C329.806 659.794 327.195 662.217 323.594 664.226C321.392 664.406 319.211 664.55 317.082 663.828C314.255 662.87 311.748 660.726 310.478 658.016Q310.26 657.548 310.09 657.06Q309.92 656.573 309.798 656.071Q309.676 655.569 309.605 655.058Q309.533 654.547 309.512 654.031Q309.491 653.515 309.521 652.999Q309.551 652.484 309.631 651.974Q309.712 651.464 309.842 650.964Q309.972 650.464 310.151 649.98C311.516 646.237 314.162 644.171 317.658 642.548Z"/>
	<path fill="white" d="M318.578 646.457C319.399 646.434 320.18 646.456 320.997 646.561C322.89 646.801 324.615 648.113 325.624 649.694Q325.793 649.96 325.934 650.242Q326.076 650.524 326.189 650.819Q326.301 651.113 326.384 651.418Q326.467 651.722 326.519 652.033Q326.571 652.344 326.592 652.659Q326.612 652.974 326.602 653.289Q326.591 653.604 326.549 653.917Q326.507 654.229 326.434 654.536C325.853 657.016 324.312 658.214 322.253 659.514C321.511 659.567 320.733 659.645 319.987 659.623C318.256 659.57 316.321 658.918 315.191 657.511C313.984 656.009 313.634 654.424 313.97 652.554C314.487 649.676 316.318 648.094 318.578 646.457Z"/>
	<path fill="#572E4C" d="M317.994 587.596C320.552 587.418 323.121 587.422 325.443 588.654C329.384 590.745 330.545 595.028 331.706 598.991C329.886 604.313 327.175 606.903 322.33 609.442C320.728 609.555 319.288 609.547 317.732 609.095C314.494 608.154 311.657 606.108 310.138 603.052Q309.909 602.595 309.728 602.117Q309.548 601.639 309.417 601.145Q309.286 600.651 309.206 600.146Q309.127 599.641 309.099 599.13Q309.072 598.62 309.097 598.11Q309.122 597.599 309.199 597.094Q309.276 596.589 309.404 596.094Q309.533 595.599 309.711 595.12C311.198 591.162 314.304 589.242 317.994 587.596Z"/>
	<path fill="white" d="M318.577 592.01C319.611 591.967 320.759 591.866 321.767 592.174C323.485 592.699 324.991 593.748 325.823 595.382C326.544 596.799 326.553 598.483 326.066 599.974C325.257 602.454 323.511 603.371 321.342 604.529C320.344 604.567 319.503 604.57 318.509 604.386C316.792 604.069 315.027 602.799 314.164 601.287C313.328 599.822 313.201 598.1 313.728 596.505C314.548 594.027 316.353 593.087 318.577 592.01Z"/>
	<path fill="#E5989B" d="M314.53 44.8238L438.251 83.9952Q463.214 91.5436 488.068 99.4404C494.231 101.412 500.742 103.013 506.746 105.37C508.542 106.076 509.938 106.682 510.881 108.463C512.078 110.724 512.166 113.733 511.351 116.129C510.446 118.788 508.128 119.666 505.729 120.753C484.721 130.265 463.64 139.575 443.132 150.167C425.627 159.208 408.019 168.26 390.772 177.78C378.895 184.336 335.135 211.794 325.708 213.414C318.88 214.588 297.913 208.071 290.648 205.809L291.122 205.128L290.773 204.136C283.374 198.032 260.565 190.325 250.739 186.445L203.057 167.586Q166.316 152.819 130.131 136.739C133.822 133.8 137.336 130.658 141.248 128.002C158.874 116.033 179.692 106.903 198.944 97.7536C230.844 82.5943 263.341 68.7676 295.537 54.2532C300.871 51.8487 307.715 50.1009 312.439 47.7778C313.928 47.0452 314.034 46.3439 314.53 44.8238Z"/>
	<path fill="white" d="M465.889 407.101C490.944 406.392 516.187 407.047 541.262 407.101L656.28 407.174L741.317 407.368C761.027 407.307 780.771 406.877 800.477 407.362C796.006 422.235 791.015 436.893 787.634 452.082C777.452 497.815 781.191 543.781 791.629 589.019C773.087 588.309 754.537 588.76 735.986 588.473C734.247 573.98 733.583 559.172 732.267 544.615C731.718 542.877 731.752 540.426 731.541 538.568C730.747 531.591 729.308 524.908 724.823 519.282C720.98 514.46 714.682 510.611 708.579 509.437C698.632 507.524 676.53 508.716 665.211 508.758L584.924 509.016C567.594 509.044 550.179 509.725 532.937 507.922C524.594 507.05 512.808 510.252 506.379 515.519C502.344 518.825 499.407 522.522 497.586 527.463C494.72 535.238 494.853 544.788 494.114 553.006Q492.607 570.502 490.877 587.977L428.343 588.109C431.494 577.221 434.258 566.094 435.828 554.856C436.626 549.143 436.827 543.349 437.666 537.646C438.535 531.738 440.312 526.012 441.099 520.072C444.265 496.193 443.202 469.945 437.169 446.564C450.828 435.676 460.514 423.937 465.889 407.101Z"/>
	<path fill="#FFCDB2" d="M408.406 592.955C416.971 591.689 426.766 592.574 435.484 592.515C453.808 592.391 472.242 592.005 490.556 592.701C490.224 596.455 489.995 600.257 489.307 603.966C469.551 603.945 449.515 602.701 429.785 603.849C423.569 612.539 416.817 627.079 411.409 636.922C408.393 642.412 404.552 647.512 401.695 653.07C401.048 654.328 400.544 655.327 400.526 656.773C401.821 657.742 403.254 657.793 404.821 657.875C413.457 658.325 422.444 657.644 431.115 657.629L492.665 657.541L680.758 657.593L797.93 657.562L828.834 657.539C832.889 657.563 837.331 658.34 841.325 657.637C842.682 657.399 843.067 657.121 843.839 656.013L843.957 654.609L826.172 618.79C823.956 614.233 822.007 607.118 818.743 603.469C791.739 603.885 764.651 603.655 737.668 604.593C737.089 600.785 736.453 596.993 736.439 593.13L827.363 593.463Q838.075 593.489 848.787 593.408C854.696 593.343 861.149 592.604 866.938 593.828C874.611 595.451 882.998 601.093 888.425 606.612C891.763 610.006 894.856 613.78 897.597 617.67C906.876 630.838 914.739 645.072 923.457 658.618C932.337 672.414 942.309 685.77 950.281 700.126C951.598 702.496 953.533 705.824 953.496 708.568C953.466 710.861 952.021 712.95 950.336 714.389C949.346 715.234 948.265 715.971 947.165 716.664C929.467 716.954 911.688 716.404 893.981 716.314L811.051 716.303L566.359 716.424L406.332 716.463C381.144 716.478 355.755 717.229 330.598 716.471C327.488 716.377 324.357 715.505 321.534 714.224C321.054 713.974 320.571 713.728 320.102 713.458C318.431 712.496 316.223 711.107 315.978 708.988C315.699 706.587 318.492 702.401 319.655 700.37C333.592 676.016 349.921 652.654 365.268 629.15C370.061 621.81 379.666 605.27 384.753 599.82C390.327 593.848 400.817 593.389 408.406 592.955Z"/>
	<path fill="white" d="M818.743 603.469C818.25 601.56 818.188 601.605 819.063 599.851C820.409 598.933 821.649 598.603 823.265 598.897C826.554 599.495 829.176 602.43 830.836 605.135C831.975 606.991 832.784 608.994 833.509 611.038C834.452 613.7 836.155 616.029 837.406 618.555C842.277 628.394 850.907 643.935 853.793 653.905L843.957 654.609L826.172 618.79C823.956 614.233 822.007 607.118 818.743 603.469Z"/>
	<path fill="white" d="M321.534 714.224C321.054 713.974 320.571 713.728 320.102 713.458C318.431 712.496 316.223 711.107 315.978 708.988C315.699 706.587 318.492 702.401 319.655 700.37C333.592 676.016 349.921 652.654 365.268 629.15C370.061 621.81 379.666 605.27 384.753 599.82C390.327 593.848 400.817 593.389 408.406 592.955Q411.863 593.069 415.316 593.259C409.352 594.819 399.556 596.163 394.631 599.841C392.788 601.217 391.49 603.328 390.35 605.292C387.011 611.042 384.081 617.022 380.595 622.691C372.545 635.784 363.739 648.451 355.595 661.507C344.5 679.295 333.91 697.286 321.534 714.224Z"/>
	<path fill="#572E4C" d="M880.742 612.166C882.505 612.199 884.202 612.333 885.924 612.741C894.519 614.777 898.642 621.146 902.95 628.122C902.778 634.473 902.192 638.91 898.523 644.225L898.753 644.63C903.117 652.493 908.955 659.641 913.985 667.099C916.908 671.432 930.388 689.881 929.61 693.909C926.465 696.74 917.61 695.583 913.389 695.503Q905.845 695.37 898.31 695.747C890.833 682.543 882.939 669.168 874.757 656.399C871.562 651.413 860.309 639.176 859.892 634.46C859.453 629.512 860.763 624.733 863.882 620.843C868.074 615.615 874.206 612.846 880.742 612.166Z"/>
	<path fill="#B5838D" d="M894.515 647.425L895.055 647.466C896.718 648.6 897.8 650.846 898.87 652.532C892.487 655.833 887.682 655.705 880.634 655.303C878.811 653.819 877.612 652.116 876.254 650.228C883.323 651.231 888.238 651.047 894.515 647.425Z"/>
	<path fill="#FFCDB2" d="M864.699 634.495C864.672 634.288 864.635 634.081 864.619 633.873C864.328 630.057 865.643 625.833 868.098 622.898C870.891 619.561 875.313 617.368 879.643 617.054C885.046 616.662 889.371 619.14 893.383 622.437C891.431 623.454 888.497 622.996 886.32 623.049C877.676 623.258 870.885 628.819 864.849 634.386C864.803 634.428 864.749 634.458 864.699 634.495Z"/>
	<path fill="#E5989B" d="M893.383 622.437C895.591 624.418 897.034 626.831 898.471 629.396C898.518 634.513 897.937 638.58 894.263 642.519Q893.713 643.109 893.105 643.639Q892.498 644.169 891.839 644.635Q891.181 645.1 890.478 645.496Q889.775 645.892 889.036 646.213Q888.297 646.535 887.528 646.78Q886.76 647.024 885.97 647.189Q885.181 647.353 884.379 647.436Q883.576 647.519 882.77 647.52C877.577 647.563 872.361 645.63 868.756 641.833C866.743 639.711 865.666 637.211 864.699 634.495C864.749 634.458 864.803 634.428 864.849 634.386C870.885 628.819 877.676 623.258 886.32 623.049C888.497 622.996 891.431 623.454 893.383 622.437Z"/>
	<path fill="#FFCDB2" d="M899.059 653.465C902.247 655.657 920.154 684.38 923.722 690.533L903.9 690.994C903.136 690.992 902.539 690.97 901.794 690.757C898.364 689.78 882.976 661.022 880.201 656.186C887.31 657.068 892.635 657.126 899.059 653.465Z"/>
</svg>
